<svg width="1363" height="167" viewBox="0 0 1363 167" fill="none" xmlns="http://www.w3.org/2000/svg">
<rect width="1363" height="167" rx="15" fill="#F0F0F0"/>
<path d="M0 15C0 6.71573 6.71573 0 15 0H37V167H15C6.71573 167 0 160.284 0 152V15Z" fill="#424241"/>
<path d="M100.906 54.9219L93.3945 52.2383V49.0859L103.602 53.375V55.6367L100.906 54.9219ZM93.3945 57.1719L100.918 54.4297L103.602 53.7852V56.0352L93.3945 60.3242V57.1719ZM121.789 56.3398H125.293C125.223 57.4883 124.906 58.5078 124.344 59.3984C123.789 60.2891 123.012 60.9844 122.012 61.4844C121.02 61.9844 119.824 62.2344 118.426 62.2344C117.332 62.2344 116.352 62.0469 115.484 61.6719C114.617 61.2891 113.875 60.7422 113.258 60.0312C112.648 59.3203 112.184 58.4609 111.863 57.4531C111.543 56.4453 111.383 55.3164 111.383 54.0664V52.8828C111.383 51.6328 111.547 50.5039 111.875 49.4961C112.211 48.4805 112.688 47.6172 113.305 46.9062C113.93 46.1953 114.676 45.6484 115.543 45.2656C116.41 44.8828 117.379 44.6914 118.449 44.6914C119.871 44.6914 121.07 44.9492 122.047 45.4648C123.031 45.9805 123.793 46.6914 124.332 47.5977C124.879 48.5039 125.207 49.5352 125.316 50.6914H121.801C121.762 50.0039 121.625 49.4219 121.391 48.9453C121.156 48.4609 120.801 48.0977 120.324 47.8555C119.855 47.6055 119.23 47.4805 118.449 47.4805C117.863 47.4805 117.352 47.5898 116.914 47.8086C116.477 48.0273 116.109 48.3594 115.812 48.8047C115.516 49.25 115.293 49.8125 115.145 50.4922C115.004 51.1641 114.934 51.9531 114.934 52.8594V54.0664C114.934 54.9492 115 55.7266 115.133 56.3984C115.266 57.0625 115.469 57.625 115.742 58.0859C116.023 58.5391 116.383 58.8828 116.82 59.1172C117.266 59.3438 117.801 59.457 118.426 59.457C119.16 59.457 119.766 59.3398 120.242 59.1055C120.719 58.8711 121.082 58.5234 121.332 58.0625C121.59 57.6016 121.742 57.0273 121.789 56.3398ZM130.953 44V62H127.566V44H130.953ZM137.305 49.3203V62H133.918V49.3203H137.305ZM133.707 46.0156C133.707 45.5234 133.879 45.1172 134.223 44.7969C134.566 44.4766 135.027 44.3164 135.605 44.3164C136.176 44.3164 136.633 44.4766 136.977 44.7969C137.328 45.1172 137.504 45.5234 137.504 46.0156C137.504 46.5078 137.328 46.9141 136.977 47.2344C136.633 47.5547 136.176 47.7148 135.605 47.7148C135.027 47.7148 134.566 47.5547 134.223 47.2344C133.879 46.9141 133.707 46.5078 133.707 46.0156ZM143.469 51.9453V62H140.082V49.3203H143.258L143.469 51.9453ZM143 55.2148H142.062C142.062 54.332 142.168 53.5195 142.379 52.7773C142.598 52.0273 142.914 51.3789 143.328 50.832C143.75 50.2773 144.27 49.8477 144.887 49.543C145.504 49.2383 146.219 49.0859 147.031 49.0859C147.594 49.0859 148.109 49.1719 148.578 49.3438C149.047 49.5078 149.449 49.7695 149.785 50.1289C150.129 50.4805 150.395 50.9414 150.582 51.5117C150.77 52.0742 150.863 52.75 150.863 53.5391V62H147.488V53.9141C147.488 53.3359 147.41 52.8906 147.254 52.5781C147.098 52.2656 146.875 52.0469 146.586 51.9219C146.305 51.7969 145.965 51.7344 145.566 51.7344C145.129 51.7344 144.746 51.8242 144.418 52.0039C144.098 52.1836 143.832 52.4336 143.621 52.7539C143.41 53.0664 143.254 53.4336 143.152 53.8555C143.051 54.2773 143 54.7305 143 55.2148ZM150.547 54.8281L149.34 54.9805C149.34 54.1523 149.441 53.3828 149.645 52.6719C149.855 51.9609 150.164 51.3359 150.57 50.7969C150.984 50.2578 151.496 49.8398 152.105 49.543C152.715 49.2383 153.418 49.0859 154.215 49.0859C154.824 49.0859 155.379 49.1758 155.879 49.3555C156.379 49.5273 156.805 49.8047 157.156 50.1875C157.516 50.5625 157.789 51.0547 157.977 51.6641C158.172 52.2734 158.27 53.0195 158.27 53.9023V62H154.883V53.9023C154.883 53.3164 154.805 52.8711 154.648 52.5664C154.5 52.2539 154.281 52.0391 153.992 51.9219C153.711 51.7969 153.375 51.7344 152.984 51.7344C152.578 51.7344 152.223 51.8164 151.918 51.9805C151.613 52.1367 151.359 52.3555 151.156 52.6367C150.953 52.918 150.801 53.2461 150.699 53.6211C150.598 53.9883 150.547 54.3906 150.547 54.8281ZM160.883 44H164.258V59.0938L163.918 62H160.883V44ZM172.285 55.5312V55.7773C172.285 56.7227 172.184 57.5898 171.98 58.3789C171.785 59.168 171.48 59.8516 171.066 60.4297C170.652 61 170.137 61.4453 169.52 61.7656C168.91 62.0781 168.191 62.2344 167.363 62.2344C166.59 62.2344 165.918 62.0781 165.348 61.7656C164.785 61.4531 164.312 61.0117 163.93 60.4414C163.547 59.8711 163.238 59.2031 163.004 58.4375C162.77 57.6719 162.594 56.8359 162.477 55.9297V55.3906C162.594 54.4844 162.77 53.6484 163.004 52.8828C163.238 52.1172 163.547 51.4492 163.93 50.8789C164.312 50.3086 164.785 49.8672 165.348 49.5547C165.91 49.2422 166.574 49.0859 167.34 49.0859C168.176 49.0859 168.902 49.2461 169.52 49.5664C170.145 49.8789 170.66 50.3242 171.066 50.9023C171.48 51.4727 171.785 52.1523 171.98 52.9414C172.184 53.7227 172.285 54.5859 172.285 55.5312ZM168.91 55.7773V55.5312C168.91 55.0156 168.871 54.5312 168.793 54.0781C168.723 53.6172 168.598 53.2148 168.418 52.8711C168.238 52.5195 167.992 52.2422 167.68 52.0391C167.375 51.8359 166.98 51.7344 166.496 51.7344C166.035 51.7344 165.645 51.8125 165.324 51.9688C165.004 52.125 164.738 52.3438 164.527 52.625C164.324 52.9062 164.172 53.2422 164.07 53.6328C163.969 54.0156 163.906 54.4375 163.883 54.8984V56.4336C163.906 57.0508 164.008 57.5977 164.188 58.0742C164.375 58.543 164.656 58.9141 165.031 59.1875C165.414 59.4531 165.91 59.5859 166.52 59.5859C166.996 59.5859 167.391 59.4922 167.703 59.3047C168.016 59.1172 168.258 58.8516 168.43 58.5078C168.609 58.1641 168.734 57.7617 168.805 57.3008C168.875 56.832 168.91 56.3242 168.91 55.7773ZM183.477 57.5352C183.477 57.2305 183.43 56.957 183.336 56.7148C183.25 56.4648 183.086 56.2383 182.844 56.0352C182.602 55.8242 182.262 55.6172 181.824 55.4141C181.387 55.2109 180.82 55 180.125 54.7812C179.352 54.5312 178.617 54.25 177.922 53.9375C177.234 53.625 176.625 53.2617 176.094 52.8477C175.57 52.4258 175.156 51.9375 174.852 51.3828C174.555 50.8281 174.406 50.1836 174.406 49.4492C174.406 48.7383 174.562 48.0938 174.875 47.5156C175.188 46.9297 175.625 46.4297 176.188 46.0156C176.75 45.5938 177.414 45.2695 178.18 45.043C178.953 44.8164 179.801 44.7031 180.723 44.7031C181.98 44.7031 183.078 44.9297 184.016 45.3828C184.953 45.8359 185.68 46.457 186.195 47.2461C186.719 48.0352 186.98 48.9375 186.98 49.9531H183.488C183.488 49.4531 183.383 49.0156 183.172 48.6406C182.969 48.2578 182.656 47.957 182.234 47.7383C181.82 47.5195 181.297 47.4102 180.664 47.4102C180.055 47.4102 179.547 47.5039 179.141 47.6914C178.734 47.8711 178.43 48.1172 178.227 48.4297C178.023 48.7344 177.922 49.0781 177.922 49.4609C177.922 49.75 177.992 50.0117 178.133 50.2461C178.281 50.4805 178.5 50.6992 178.789 50.9023C179.078 51.1055 179.434 51.2969 179.855 51.4766C180.277 51.6562 180.766 51.832 181.32 52.0039C182.25 52.2852 183.066 52.6016 183.77 52.9531C184.48 53.3047 185.074 53.6992 185.551 54.1367C186.027 54.5742 186.387 55.0703 186.629 55.625C186.871 56.1797 186.992 56.8086 186.992 57.5117C186.992 58.2539 186.848 58.918 186.559 59.5039C186.27 60.0898 185.852 60.5859 185.305 60.9922C184.758 61.3984 184.105 61.707 183.348 61.918C182.59 62.1289 181.742 62.2344 180.805 62.2344C179.961 62.2344 179.129 62.125 178.309 61.9062C177.488 61.6797 176.742 61.3398 176.07 60.8867C175.406 60.4336 174.875 59.8555 174.477 59.1523C174.078 58.4492 173.879 57.6172 173.879 56.6562H177.406C177.406 57.1875 177.488 57.6367 177.652 58.0039C177.816 58.3711 178.047 58.668 178.344 58.8945C178.648 59.1211 179.008 59.2852 179.422 59.3867C179.844 59.4883 180.305 59.5391 180.805 59.5391C181.414 59.5391 181.914 59.4531 182.305 59.2812C182.703 59.1094 182.996 58.8711 183.184 58.5664C183.379 58.2617 183.477 57.918 183.477 57.5352ZM192.734 49.3203V62H189.348V49.3203H192.734ZM189.137 46.0156C189.137 45.5234 189.309 45.1172 189.652 44.7969C189.996 44.4766 190.457 44.3164 191.035 44.3164C191.605 44.3164 192.062 44.4766 192.406 44.7969C192.758 45.1172 192.934 45.5234 192.934 46.0156C192.934 46.5078 192.758 46.9141 192.406 47.2344C192.062 47.5547 191.605 47.7148 191.035 47.7148C190.457 47.7148 189.996 47.5547 189.652 47.2344C189.309 46.9141 189.137 46.5078 189.137 46.0156ZM201.734 49.3203V51.7109H194.352V49.3203H201.734ZM196.18 46.1914H199.555V58.1797C199.555 58.5469 199.602 58.8281 199.695 59.0234C199.797 59.2188 199.945 59.3555 200.141 59.4336C200.336 59.5039 200.582 59.5391 200.879 59.5391C201.09 59.5391 201.277 59.5312 201.441 59.5156C201.613 59.4922 201.758 59.4688 201.875 59.4453L201.887 61.9297C201.598 62.0234 201.285 62.0977 200.949 62.1523C200.613 62.207 200.242 62.2344 199.836 62.2344C199.094 62.2344 198.445 62.1133 197.891 61.8711C197.344 61.6211 196.922 61.2227 196.625 60.6758C196.328 60.1289 196.18 59.4102 196.18 58.5195V46.1914ZM209.492 62.2344C208.508 62.2344 207.625 62.0781 206.844 61.7656C206.062 61.4453 205.398 61.0039 204.852 60.4414C204.312 59.8789 203.898 59.2266 203.609 58.4844C203.32 57.7344 203.176 56.9375 203.176 56.0938V55.625C203.176 54.6641 203.312 53.7852 203.586 52.9883C203.859 52.1914 204.25 51.5 204.758 50.9141C205.273 50.3281 205.898 49.8789 206.633 49.5664C207.367 49.2461 208.195 49.0859 209.117 49.0859C210.016 49.0859 210.812 49.2344 211.508 49.5312C212.203 49.8281 212.785 50.25 213.254 50.7969C213.73 51.3438 214.09 52 214.332 52.7656C214.574 53.5234 214.695 54.3672 214.695 55.2969V56.7031H204.617V54.4531H211.379V54.1953C211.379 53.7266 211.293 53.3086 211.121 52.9414C210.957 52.5664 210.707 52.2695 210.371 52.0508C210.035 51.832 209.605 51.7227 209.082 51.7227C208.637 51.7227 208.254 51.8203 207.934 52.0156C207.613 52.2109 207.352 52.4844 207.148 52.8359C206.953 53.1875 206.805 53.6016 206.703 54.0781C206.609 54.5469 206.562 55.0625 206.562 55.625V56.0938C206.562 56.6016 206.633 57.0703 206.773 57.5C206.922 57.9297 207.129 58.3008 207.395 58.6133C207.668 58.9258 207.996 59.168 208.379 59.3398C208.77 59.5117 209.211 59.5977 209.703 59.5977C210.312 59.5977 210.879 59.4805 211.402 59.2461C211.934 59.0039 212.391 58.6406 212.773 58.1562L214.414 59.9375C214.148 60.3203 213.785 60.6875 213.324 61.0391C212.871 61.3906 212.324 61.6797 211.684 61.9062C211.043 62.125 210.312 62.2344 209.492 62.2344Z" fill="#888888"/>
<path d="M115.994 98.708V104.641H99.5806V98.708H115.994ZM102.151 86.0078V118H94.439V86.0078H102.151ZM121.18 86.0078V118H113.489V86.0078H121.18ZM124.805 106.354V105.893C124.805 104.15 125.054 102.546 125.552 101.081C126.05 99.6016 126.783 98.3198 127.75 97.2358C128.716 96.1519 129.91 95.3096 131.331 94.709C132.752 94.0938 134.393 93.7861 136.253 93.7861C138.128 93.7861 139.776 94.0938 141.197 94.709C142.632 95.3096 143.833 96.1519 144.8 97.2358C145.767 98.3198 146.5 99.6016 146.998 101.081C147.496 102.546 147.745 104.15 147.745 105.893V106.354C147.745 108.083 147.496 109.687 146.998 111.167C146.5 112.631 145.767 113.913 144.8 115.012C143.833 116.096 142.64 116.938 141.219 117.539C139.798 118.139 138.157 118.439 136.297 118.439C134.437 118.439 132.789 118.139 131.353 117.539C129.917 116.938 128.716 116.096 127.75 115.012C126.783 113.913 126.05 112.631 125.552 111.167C125.054 109.687 124.805 108.083 124.805 106.354ZM132.21 105.893V106.354C132.21 107.248 132.276 108.083 132.408 108.859C132.54 109.636 132.759 110.317 133.067 110.903C133.375 111.474 133.792 111.921 134.319 112.243C134.847 112.565 135.506 112.727 136.297 112.727C137.073 112.727 137.718 112.565 138.23 112.243C138.758 111.921 139.175 111.474 139.483 110.903C139.791 110.317 140.01 109.636 140.142 108.859C140.274 108.083 140.34 107.248 140.34 106.354V105.893C140.34 105.029 140.274 104.216 140.142 103.454C140.01 102.678 139.791 101.997 139.483 101.411C139.175 100.81 138.758 100.341 138.23 100.004C137.703 99.6675 137.044 99.499 136.253 99.499C135.477 99.499 134.825 99.6675 134.297 100.004C133.785 100.341 133.375 100.81 133.067 101.411C132.759 101.997 132.54 102.678 132.408 103.454C132.276 104.216 132.21 105.029 132.21 105.893ZM158.27 110.925L162.664 94.2256H167.3L165.652 102.597L161.302 118H157.588L158.27 110.925ZM156.534 94.2256L159.258 110.793L159.566 118H155.062L149.437 94.2256H156.534ZM171.211 110.441L173.958 94.2256H181.055L175.474 118H170.97L171.211 110.441ZM167.828 94.2256L172.266 110.881L172.947 118H169.19L164.927 102.641L163.345 94.2256H167.828ZM209.466 86.0078V118H201.753V86.0078H209.466ZM219.09 86.0078V91.9624H192.349V86.0078H219.09ZM216.475 106.354V105.893C216.475 104.15 216.724 102.546 217.222 101.081C217.72 99.6016 218.453 98.3198 219.419 97.2358C220.386 96.1519 221.58 95.3096 223.001 94.709C224.422 94.0938 226.062 93.7861 227.923 93.7861C229.798 93.7861 231.446 94.0938 232.867 94.709C234.302 95.3096 235.503 96.1519 236.47 97.2358C237.437 98.3198 238.169 99.6016 238.667 101.081C239.166 102.546 239.415 104.15 239.415 105.893V106.354C239.415 108.083 239.166 109.687 238.667 111.167C238.169 112.631 237.437 113.913 236.47 115.012C235.503 116.096 234.31 116.938 232.889 117.539C231.468 118.139 229.827 118.439 227.967 118.439C226.106 118.439 224.458 118.139 223.023 117.539C221.587 116.938 220.386 116.096 219.419 115.012C218.453 113.913 217.72 112.631 217.222 111.167C216.724 109.687 216.475 108.083 216.475 106.354ZM223.88 105.893V106.354C223.88 107.248 223.946 108.083 224.078 108.859C224.209 109.636 224.429 110.317 224.737 110.903C225.044 111.474 225.462 111.921 225.989 112.243C226.517 112.565 227.176 112.727 227.967 112.727C228.743 112.727 229.388 112.565 229.9 112.243C230.428 111.921 230.845 111.474 231.153 110.903C231.46 110.317 231.68 109.636 231.812 108.859C231.944 108.083 232.01 107.248 232.01 106.354V105.893C232.01 105.029 231.944 104.216 231.812 103.454C231.68 102.678 231.46 101.997 231.153 101.411C230.845 100.81 230.428 100.341 229.9 100.004C229.373 99.6675 228.714 99.499 227.923 99.499C227.146 99.499 226.495 99.6675 225.967 100.004C225.455 100.341 225.044 100.81 224.737 101.411C224.429 101.997 224.209 102.678 224.078 103.454C223.946 104.216 223.88 105.029 223.88 105.893ZM254.268 86.0078H266.858C269.319 86.0078 271.458 86.374 273.274 87.1064C275.091 87.8389 276.49 88.9229 277.471 90.3584C278.467 91.7939 278.965 93.5664 278.965 95.6758C278.965 97.5068 278.68 99.0376 278.108 100.268C277.537 101.499 276.739 102.517 275.713 103.322C274.703 104.113 273.523 104.765 272.176 105.278L269.649 106.706H259.08L259.036 100.751H266.858C267.84 100.751 268.653 100.576 269.297 100.224C269.942 99.8726 270.425 99.3745 270.748 98.73C271.084 98.0708 271.253 97.2871 271.253 96.3789C271.253 95.4561 271.084 94.665 270.748 94.0059C270.411 93.3467 269.913 92.8413 269.253 92.4897C268.609 92.1382 267.811 91.9624 266.858 91.9624H261.98V118H254.268V86.0078ZM271.78 118L264.705 103.85L272.879 103.806L280.042 117.67V118H271.78ZM297.159 112.221V94.2256H304.585V118H297.642L297.159 112.221ZM297.862 107.387L299.795 107.343C299.795 108.94 299.605 110.419 299.224 111.782C298.843 113.129 298.279 114.301 297.532 115.297C296.8 116.293 295.892 117.07 294.808 117.626C293.738 118.168 292.5 118.439 291.094 118.439C289.922 118.439 288.846 118.278 287.864 117.956C286.897 117.619 286.062 117.099 285.359 116.396C284.656 115.678 284.107 114.763 283.711 113.649C283.331 112.521 283.14 111.174 283.14 109.606V94.2256H290.545V109.65C290.545 110.178 290.611 110.632 290.743 111.013C290.875 111.394 291.065 111.716 291.314 111.979C291.563 112.229 291.871 112.419 292.237 112.551C292.618 112.668 293.05 112.727 293.533 112.727C294.646 112.727 295.518 112.492 296.148 112.023C296.778 111.555 297.217 110.917 297.466 110.112C297.73 109.306 297.862 108.398 297.862 107.387ZM315.945 99.3013V118H308.541V94.2256H315.484L315.945 99.3013ZM315.066 105.3L313.331 105.344C313.331 103.527 313.55 101.909 313.99 100.488C314.429 99.0522 315.052 97.8364 315.857 96.8403C316.663 95.8442 317.623 95.0898 318.736 94.5771C319.864 94.0498 321.116 93.7861 322.493 93.7861C323.592 93.7861 324.595 93.9473 325.503 94.2695C326.426 94.5918 327.217 95.1118 327.876 95.8296C328.55 96.5474 329.063 97.4995 329.415 98.686C329.781 99.8579 329.964 101.308 329.964 103.037V118H322.515V103.015C322.515 102.062 322.383 101.337 322.12 100.839C321.856 100.327 321.475 99.9751 320.977 99.7847C320.479 99.5942 319.871 99.499 319.153 99.499C318.392 99.499 317.747 99.6455 317.22 99.9385C316.692 100.231 316.268 100.642 315.945 101.169C315.638 101.682 315.411 102.29 315.264 102.993C315.132 103.696 315.066 104.465 315.066 105.3ZM345.85 107.871H339.544C339.544 106.582 339.632 105.446 339.808 104.465C339.998 103.469 340.32 102.575 340.774 101.784C341.229 100.993 341.844 100.261 342.62 99.5869C343.309 99.0156 343.902 98.4663 344.4 97.939C344.898 97.4116 345.279 96.877 345.542 96.335C345.806 95.793 345.938 95.2144 345.938 94.5991C345.938 93.8374 345.828 93.2148 345.608 92.7314C345.403 92.248 345.088 91.8892 344.664 91.6548C344.253 91.4058 343.733 91.2812 343.104 91.2812C342.591 91.2812 342.107 91.4058 341.653 91.6548C341.214 91.9038 340.855 92.292 340.577 92.8193C340.298 93.332 340.145 94.0132 340.115 94.8628H332.667C332.71 92.6802 333.194 90.9077 334.117 89.5454C335.054 88.1685 336.299 87.165 337.852 86.5352C339.419 85.8906 341.17 85.5684 343.104 85.5684C345.242 85.5684 347.081 85.8979 348.619 86.5571C350.157 87.2163 351.336 88.1978 352.156 89.5015C352.977 90.7905 353.387 92.3799 353.387 94.2695C353.387 95.5293 353.145 96.6279 352.662 97.5654C352.193 98.4883 351.556 99.3525 350.75 100.158C349.959 100.949 349.073 101.799 348.091 102.707C347.242 103.454 346.663 104.216 346.355 104.992C346.048 105.754 345.879 106.713 345.85 107.871ZM338.643 114.55C338.643 113.496 339.024 112.617 339.786 111.914C340.547 111.196 341.536 110.837 342.752 110.837C343.968 110.837 344.957 111.196 345.718 111.914C346.48 112.617 346.861 113.496 346.861 114.55C346.861 115.605 346.48 116.491 345.718 117.209C344.957 117.912 343.968 118.264 342.752 118.264C341.536 118.264 340.547 117.912 339.786 117.209C339.024 116.491 338.643 115.605 338.643 114.55Z" fill="#424241"/>
<path d="M1363 15C1363 6.71573 1356.28 0 1348 0H1134V167H1348C1356.28 167 1363 160.284 1363 152V15Z" fill="#1B8B6A"/>
</svg>
