<svg width="1363" height="167" viewBox="0 0 1363 167" fill="none" xmlns="http://www.w3.org/2000/svg">
<rect width="1363" height="167" rx="15" fill="#F0F0F0"/>
<path d="M0 15C0 6.71573 6.71573 0 15 0H37V167H15C6.71573 167 0 160.284 0 152V15Z" fill="#424241"/>
<path d="M100.906 54.9219L93.3945 52.2383V49.0859L103.602 53.375V55.6367L100.906 54.9219ZM93.3945 57.1719L100.918 54.4297L103.602 53.7852V56.0352L93.3945 60.3242V57.1719ZM121.789 56.3398H125.293C125.223 57.4883 124.906 58.5078 124.344 59.3984C123.789 60.2891 123.012 60.9844 122.012 61.4844C121.02 61.9844 119.824 62.2344 118.426 62.2344C117.332 62.2344 116.352 62.0469 115.484 61.6719C114.617 61.2891 113.875 60.7422 113.258 60.0312C112.648 59.3203 112.184 58.4609 111.863 57.4531C111.543 56.4453 111.383 55.3164 111.383 54.0664V52.8828C111.383 51.6328 111.547 50.5039 111.875 49.4961C112.211 48.4805 112.688 47.6172 113.305 46.9062C113.93 46.1953 114.676 45.6484 115.543 45.2656C116.41 44.8828 117.379 44.6914 118.449 44.6914C119.871 44.6914 121.07 44.9492 122.047 45.4648C123.031 45.9805 123.793 46.6914 124.332 47.5977C124.879 48.5039 125.207 49.5352 125.316 50.6914H121.801C121.762 50.0039 121.625 49.4219 121.391 48.9453C121.156 48.4609 120.801 48.0977 120.324 47.8555C119.855 47.6055 119.23 47.4805 118.449 47.4805C117.863 47.4805 117.352 47.5898 116.914 47.8086C116.477 48.0273 116.109 48.3594 115.812 48.8047C115.516 49.25 115.293 49.8125 115.145 50.4922C115.004 51.1641 114.934 51.9531 114.934 52.8594V54.0664C114.934 54.9492 115 55.7266 115.133 56.3984C115.266 57.0625 115.469 57.625 115.742 58.0859C116.023 58.5391 116.383 58.8828 116.82 59.1172C117.266 59.3438 117.801 59.457 118.426 59.457C119.16 59.457 119.766 59.3398 120.242 59.1055C120.719 58.8711 121.082 58.5234 121.332 58.0625C121.59 57.6016 121.742 57.0273 121.789 56.3398ZM130.953 44V62H127.566V44H130.953ZM137.305 49.3203V62H133.918V49.3203H137.305ZM133.707 46.0156C133.707 45.5234 133.879 45.1172 134.223 44.7969C134.566 44.4766 135.027 44.3164 135.605 44.3164C136.176 44.3164 136.633 44.4766 136.977 44.7969C137.328 45.1172 137.504 45.5234 137.504 46.0156C137.504 46.5078 137.328 46.9141 136.977 47.2344C136.633 47.5547 136.176 47.7148 135.605 47.7148C135.027 47.7148 134.566 47.5547 134.223 47.2344C133.879 46.9141 133.707 46.5078 133.707 46.0156ZM143.469 51.9453V62H140.082V49.3203H143.258L143.469 51.9453ZM143 55.2148H142.062C142.062 54.332 142.168 53.5195 142.379 52.7773C142.598 52.0273 142.914 51.3789 143.328 50.832C143.75 50.2773 144.27 49.8477 144.887 49.543C145.504 49.2383 146.219 49.0859 147.031 49.0859C147.594 49.0859 148.109 49.1719 148.578 49.3438C149.047 49.5078 149.449 49.7695 149.785 50.1289C150.129 50.4805 150.395 50.9414 150.582 51.5117C150.77 52.0742 150.863 52.75 150.863 53.5391V62H147.488V53.9141C147.488 53.3359 147.41 52.8906 147.254 52.5781C147.098 52.2656 146.875 52.0469 146.586 51.9219C146.305 51.7969 145.965 51.7344 145.566 51.7344C145.129 51.7344 144.746 51.8242 144.418 52.0039C144.098 52.1836 143.832 52.4336 143.621 52.7539C143.41 53.0664 143.254 53.4336 143.152 53.8555C143.051 54.2773 143 54.7305 143 55.2148ZM150.547 54.8281L149.34 54.9805C149.34 54.1523 149.441 53.3828 149.645 52.6719C149.855 51.9609 150.164 51.3359 150.57 50.7969C150.984 50.2578 151.496 49.8398 152.105 49.543C152.715 49.2383 153.418 49.0859 154.215 49.0859C154.824 49.0859 155.379 49.1758 155.879 49.3555C156.379 49.5273 156.805 49.8047 157.156 50.1875C157.516 50.5625 157.789 51.0547 157.977 51.6641C158.172 52.2734 158.27 53.0195 158.27 53.9023V62H154.883V53.9023C154.883 53.3164 154.805 52.8711 154.648 52.5664C154.5 52.2539 154.281 52.0391 153.992 51.9219C153.711 51.7969 153.375 51.7344 152.984 51.7344C152.578 51.7344 152.223 51.8164 151.918 51.9805C151.613 52.1367 151.359 52.3555 151.156 52.6367C150.953 52.918 150.801 53.2461 150.699 53.6211C150.598 53.9883 150.547 54.3906 150.547 54.8281ZM160.883 44H164.258V59.0938L163.918 62H160.883V44ZM172.285 55.5312V55.7773C172.285 56.7227 172.184 57.5898 171.98 58.3789C171.785 59.168 171.48 59.8516 171.066 60.4297C170.652 61 170.137 61.4453 169.52 61.7656C168.91 62.0781 168.191 62.2344 167.363 62.2344C166.59 62.2344 165.918 62.0781 165.348 61.7656C164.785 61.4531 164.312 61.0117 163.93 60.4414C163.547 59.8711 163.238 59.2031 163.004 58.4375C162.77 57.6719 162.594 56.8359 162.477 55.9297V55.3906C162.594 54.4844 162.77 53.6484 163.004 52.8828C163.238 52.1172 163.547 51.4492 163.93 50.8789C164.312 50.3086 164.785 49.8672 165.348 49.5547C165.91 49.2422 166.574 49.0859 167.34 49.0859C168.176 49.0859 168.902 49.2461 169.52 49.5664C170.145 49.8789 170.66 50.3242 171.066 50.9023C171.48 51.4727 171.785 52.1523 171.98 52.9414C172.184 53.7227 172.285 54.5859 172.285 55.5312ZM168.91 55.7773V55.5312C168.91 55.0156 168.871 54.5312 168.793 54.0781C168.723 53.6172 168.598 53.2148 168.418 52.8711C168.238 52.5195 167.992 52.2422 167.68 52.0391C167.375 51.8359 166.98 51.7344 166.496 51.7344C166.035 51.7344 165.645 51.8125 165.324 51.9688C165.004 52.125 164.738 52.3438 164.527 52.625C164.324 52.9062 164.172 53.2422 164.07 53.6328C163.969 54.0156 163.906 54.4375 163.883 54.8984V56.4336C163.906 57.0508 164.008 57.5977 164.188 58.0742C164.375 58.543 164.656 58.9141 165.031 59.1875C165.414 59.4531 165.91 59.5859 166.52 59.5859C166.996 59.5859 167.391 59.4922 167.703 59.3047C168.016 59.1172 168.258 58.8516 168.43 58.5078C168.609 58.1641 168.734 57.7617 168.805 57.3008C168.875 56.832 168.91 56.3242 168.91 55.7773ZM183.477 57.5352C183.477 57.2305 183.43 56.957 183.336 56.7148C183.25 56.4648 183.086 56.2383 182.844 56.0352C182.602 55.8242 182.262 55.6172 181.824 55.4141C181.387 55.2109 180.82 55 180.125 54.7812C179.352 54.5312 178.617 54.25 177.922 53.9375C177.234 53.625 176.625 53.2617 176.094 52.8477C175.57 52.4258 175.156 51.9375 174.852 51.3828C174.555 50.8281 174.406 50.1836 174.406 49.4492C174.406 48.7383 174.562 48.0938 174.875 47.5156C175.188 46.9297 175.625 46.4297 176.188 46.0156C176.75 45.5938 177.414 45.2695 178.18 45.043C178.953 44.8164 179.801 44.7031 180.723 44.7031C181.98 44.7031 183.078 44.9297 184.016 45.3828C184.953 45.8359 185.68 46.457 186.195 47.2461C186.719 48.0352 186.98 48.9375 186.98 49.9531H183.488C183.488 49.4531 183.383 49.0156 183.172 48.6406C182.969 48.2578 182.656 47.957 182.234 47.7383C181.82 47.5195 181.297 47.4102 180.664 47.4102C180.055 47.4102 179.547 47.5039 179.141 47.6914C178.734 47.8711 178.43 48.1172 178.227 48.4297C178.023 48.7344 177.922 49.0781 177.922 49.4609C177.922 49.75 177.992 50.0117 178.133 50.2461C178.281 50.4805 178.5 50.6992 178.789 50.9023C179.078 51.1055 179.434 51.2969 179.855 51.4766C180.277 51.6562 180.766 51.832 181.32 52.0039C182.25 52.2852 183.066 52.6016 183.77 52.9531C184.48 53.3047 185.074 53.6992 185.551 54.1367C186.027 54.5742 186.387 55.0703 186.629 55.625C186.871 56.1797 186.992 56.8086 186.992 57.5117C186.992 58.2539 186.848 58.918 186.559 59.5039C186.27 60.0898 185.852 60.5859 185.305 60.9922C184.758 61.3984 184.105 61.707 183.348 61.918C182.59 62.1289 181.742 62.2344 180.805 62.2344C179.961 62.2344 179.129 62.125 178.309 61.9062C177.488 61.6797 176.742 61.3398 176.07 60.8867C175.406 60.4336 174.875 59.8555 174.477 59.1523C174.078 58.4492 173.879 57.6172 173.879 56.6562H177.406C177.406 57.1875 177.488 57.6367 177.652 58.0039C177.816 58.3711 178.047 58.668 178.344 58.8945C178.648 59.1211 179.008 59.2852 179.422 59.3867C179.844 59.4883 180.305 59.5391 180.805 59.5391C181.414 59.5391 181.914 59.4531 182.305 59.2812C182.703 59.1094 182.996 58.8711 183.184 58.5664C183.379 58.2617 183.477 57.918 183.477 57.5352ZM192.734 49.3203V62H189.348V49.3203H192.734ZM189.137 46.0156C189.137 45.5234 189.309 45.1172 189.652 44.7969C189.996 44.4766 190.457 44.3164 191.035 44.3164C191.605 44.3164 192.062 44.4766 192.406 44.7969C192.758 45.1172 192.934 45.5234 192.934 46.0156C192.934 46.5078 192.758 46.9141 192.406 47.2344C192.062 47.5547 191.605 47.7148 191.035 47.7148C190.457 47.7148 189.996 47.5547 189.652 47.2344C189.309 46.9141 189.137 46.5078 189.137 46.0156ZM201.734 49.3203V51.7109H194.352V49.3203H201.734ZM196.18 46.1914H199.555V58.1797C199.555 58.5469 199.602 58.8281 199.695 59.0234C199.797 59.2188 199.945 59.3555 200.141 59.4336C200.336 59.5039 200.582 59.5391 200.879 59.5391C201.09 59.5391 201.277 59.5312 201.441 59.5156C201.613 59.4922 201.758 59.4688 201.875 59.4453L201.887 61.9297C201.598 62.0234 201.285 62.0977 200.949 62.1523C200.613 62.207 200.242 62.2344 199.836 62.2344C199.094 62.2344 198.445 62.1133 197.891 61.8711C197.344 61.6211 196.922 61.2227 196.625 60.6758C196.328 60.1289 196.18 59.4102 196.18 58.5195V46.1914ZM209.492 62.2344C208.508 62.2344 207.625 62.0781 206.844 61.7656C206.062 61.4453 205.398 61.0039 204.852 60.4414C204.312 59.8789 203.898 59.2266 203.609 58.4844C203.32 57.7344 203.176 56.9375 203.176 56.0938V55.625C203.176 54.6641 203.312 53.7852 203.586 52.9883C203.859 52.1914 204.25 51.5 204.758 50.9141C205.273 50.3281 205.898 49.8789 206.633 49.5664C207.367 49.2461 208.195 49.0859 209.117 49.0859C210.016 49.0859 210.812 49.2344 211.508 49.5312C212.203 49.8281 212.785 50.25 213.254 50.7969C213.73 51.3438 214.09 52 214.332 52.7656C214.574 53.5234 214.695 54.3672 214.695 55.2969V56.7031H204.617V54.4531H211.379V54.1953C211.379 53.7266 211.293 53.3086 211.121 52.9414C210.957 52.5664 210.707 52.2695 210.371 52.0508C210.035 51.832 209.605 51.7227 209.082 51.7227C208.637 51.7227 208.254 51.8203 207.934 52.0156C207.613 52.2109 207.352 52.4844 207.148 52.8359C206.953 53.1875 206.805 53.6016 206.703 54.0781C206.609 54.5469 206.562 55.0625 206.562 55.625V56.0938C206.562 56.6016 206.633 57.0703 206.773 57.5C206.922 57.9297 207.129 58.3008 207.395 58.6133C207.668 58.9258 207.996 59.168 208.379 59.3398C208.77 59.5117 209.211 59.5977 209.703 59.5977C210.312 59.5977 210.879 59.4805 211.402 59.2461C211.934 59.0039 212.391 58.6406 212.773 58.1562L214.414 59.9375C214.148 60.3203 213.785 60.6875 213.324 61.0391C212.871 61.3906 212.324 61.6797 211.684 61.9062C211.043 62.125 210.312 62.2344 209.492 62.2344Z" fill="#888888"/>
<path d="M109.93 86.0078V118H102.217V86.0078H109.93ZM119.554 86.0078V91.9624H92.813V86.0078H119.554ZM132.012 118.439C130.079 118.439 128.35 118.139 126.827 117.539C125.303 116.923 124.014 116.081 122.959 115.012C121.919 113.942 121.121 112.712 120.564 111.32C120.022 109.929 119.751 108.457 119.751 106.904V106.069C119.751 104.326 119.993 102.714 120.477 101.235C120.96 99.7407 121.678 98.437 122.63 97.3237C123.582 96.2104 124.776 95.3462 126.211 94.731C127.647 94.1011 129.317 93.7861 131.221 93.7861C132.906 93.7861 134.415 94.0571 135.748 94.5991C137.081 95.1411 138.208 95.9175 139.131 96.9282C140.069 97.939 140.779 99.1621 141.263 100.598C141.761 102.033 142.01 103.645 142.01 105.432V108.442H122.586V103.806H134.781V103.234C134.795 102.443 134.656 101.77 134.363 101.213C134.085 100.656 133.675 100.231 133.133 99.9385C132.591 99.6455 131.932 99.499 131.155 99.499C130.35 99.499 129.683 99.6748 129.156 100.026C128.643 100.378 128.24 100.861 127.947 101.477C127.669 102.077 127.471 102.773 127.354 103.564C127.237 104.355 127.178 105.19 127.178 106.069V106.904C127.178 107.783 127.295 108.581 127.53 109.299C127.779 110.017 128.13 110.632 128.584 111.145C129.053 111.643 129.61 112.031 130.254 112.309C130.914 112.587 131.661 112.727 132.496 112.727C133.506 112.727 134.502 112.536 135.484 112.155C136.465 111.774 137.308 111.145 138.011 110.266L141.373 114.265C140.889 114.953 140.201 115.62 139.307 116.264C138.428 116.909 137.374 117.436 136.143 117.846C134.913 118.242 133.536 118.439 132.012 118.439ZM155.062 112.727C155.75 112.727 156.336 112.602 156.819 112.353C157.317 112.089 157.691 111.723 157.94 111.254C158.204 110.771 158.328 110.192 158.313 109.519H165.279C165.293 111.306 164.854 112.873 163.96 114.221C163.082 115.554 161.88 116.594 160.357 117.341C158.848 118.073 157.142 118.439 155.237 118.439C153.377 118.439 151.751 118.139 150.359 117.539C148.968 116.923 147.803 116.074 146.866 114.99C145.943 113.891 145.247 112.609 144.778 111.145C144.324 109.68 144.097 108.09 144.097 106.376V105.871C144.097 104.157 144.324 102.568 144.778 101.103C145.247 99.6235 145.943 98.3418 146.866 97.2578C147.803 96.1592 148.96 95.3096 150.337 94.709C151.729 94.0938 153.348 93.7861 155.193 93.7861C157.171 93.7861 158.914 94.1597 160.423 94.9067C161.946 95.6538 163.14 96.7378 164.004 98.1587C164.869 99.5796 165.293 101.301 165.279 103.322H158.313C158.328 102.604 158.218 101.96 157.984 101.389C157.75 100.817 157.383 100.363 156.885 100.026C156.402 99.6748 155.779 99.499 155.018 99.499C154.256 99.499 153.641 99.6675 153.172 100.004C152.703 100.341 152.344 100.81 152.095 101.411C151.861 101.997 151.7 102.67 151.612 103.432C151.539 104.194 151.502 105.007 151.502 105.871V106.376C151.502 107.255 151.539 108.083 151.612 108.859C151.7 109.621 151.868 110.295 152.117 110.881C152.366 111.452 152.725 111.906 153.194 112.243C153.663 112.565 154.285 112.727 155.062 112.727ZM175.694 84.25V118H168.289V84.25H175.694ZM174.815 105.3L173.079 105.344C173.079 103.674 173.284 102.136 173.694 100.729C174.104 99.3232 174.69 98.1001 175.452 97.0601C176.214 96.02 177.129 95.2144 178.199 94.6431C179.268 94.0718 180.455 93.7861 181.758 93.7861C182.93 93.7861 184 93.9546 184.966 94.2915C185.948 94.6284 186.79 95.1704 187.493 95.9175C188.211 96.6646 188.76 97.6387 189.141 98.8398C189.537 100.041 189.734 101.506 189.734 103.234V118H182.286V103.19C182.286 102.224 182.146 101.477 181.868 100.949C181.604 100.407 181.224 100.034 180.726 99.8286C180.228 99.6089 179.62 99.499 178.902 99.499C178.038 99.499 177.334 99.6455 176.792 99.9385C176.25 100.231 175.833 100.642 175.54 101.169C175.262 101.682 175.071 102.29 174.969 102.993C174.866 103.696 174.815 104.465 174.815 105.3ZM221.88 109.497C221.88 108.999 221.807 108.552 221.661 108.156C221.514 107.746 221.243 107.365 220.848 107.014C220.452 106.662 219.881 106.311 219.134 105.959C218.401 105.593 217.435 105.212 216.233 104.816C214.827 104.348 213.472 103.82 212.168 103.234C210.865 102.634 209.7 101.938 208.675 101.147C207.649 100.341 206.836 99.4038 206.236 98.3345C205.635 97.2505 205.335 95.9907 205.335 94.5552C205.335 93.1782 205.643 91.9404 206.258 90.8418C206.873 89.7285 207.73 88.7837 208.829 88.0073C209.942 87.2163 211.246 86.6157 212.74 86.2056C214.234 85.7808 215.867 85.5684 217.64 85.5684C219.983 85.5684 222.049 85.9785 223.836 86.7988C225.638 87.6045 227.044 88.7544 228.055 90.2485C229.08 91.728 229.593 93.4785 229.593 95.5H221.924C221.924 94.6943 221.756 93.9839 221.419 93.3687C221.097 92.7534 220.606 92.27 219.947 91.9185C219.288 91.5669 218.46 91.3911 217.464 91.3911C216.497 91.3911 215.684 91.5376 215.025 91.8306C214.366 92.1235 213.868 92.519 213.531 93.0171C213.194 93.5005 213.025 94.0352 213.025 94.6211C213.025 95.1045 213.157 95.5439 213.421 95.9395C213.699 96.3203 214.087 96.6792 214.585 97.0161C215.098 97.353 215.713 97.6753 216.431 97.9829C217.164 98.2905 217.984 98.5908 218.892 98.8838C220.591 99.4258 222.1 100.034 223.418 100.708C224.751 101.367 225.872 102.121 226.78 102.971C227.703 103.806 228.399 104.758 228.868 105.827C229.351 106.896 229.593 108.105 229.593 109.453C229.593 110.888 229.314 112.163 228.758 113.276C228.201 114.389 227.403 115.334 226.363 116.11C225.323 116.872 224.078 117.451 222.627 117.846C221.177 118.242 219.559 118.439 217.771 118.439C216.131 118.439 214.512 118.234 212.916 117.824C211.333 117.399 209.898 116.755 208.609 115.891C207.32 115.012 206.287 113.891 205.511 112.529C204.749 111.152 204.368 109.519 204.368 107.629H212.103C212.103 108.566 212.227 109.357 212.476 110.002C212.725 110.646 213.091 111.167 213.575 111.562C214.058 111.943 214.651 112.221 215.354 112.397C216.058 112.558 216.863 112.639 217.771 112.639C218.753 112.639 219.544 112.5 220.145 112.221C220.745 111.928 221.185 111.547 221.463 111.079C221.741 110.595 221.88 110.068 221.88 109.497ZM245.743 94.2256V99.3672H231.417V94.2256H245.743ZM234.427 88.3149H241.832V110.244C241.832 110.874 241.905 111.364 242.051 111.716C242.198 112.053 242.447 112.294 242.798 112.441C243.165 112.573 243.648 112.639 244.249 112.639C244.673 112.639 245.025 112.631 245.303 112.617C245.582 112.587 245.845 112.551 246.094 112.507V117.802C245.464 118.007 244.805 118.161 244.117 118.264C243.428 118.381 242.696 118.439 241.919 118.439C240.337 118.439 238.982 118.19 237.854 117.692C236.741 117.194 235.892 116.411 235.306 115.341C234.72 114.272 234.427 112.88 234.427 111.167V88.3149ZM261.036 112.023V102.224C261.036 101.55 260.94 100.971 260.75 100.488C260.56 100.004 260.259 99.6309 259.849 99.3672C259.439 99.0889 258.89 98.9497 258.201 98.9497C257.645 98.9497 257.168 99.0449 256.773 99.2354C256.377 99.4258 256.077 99.7114 255.872 100.092C255.667 100.473 255.564 100.957 255.564 101.542H248.16C248.16 100.444 248.401 99.4258 248.885 98.4883C249.383 97.5361 250.086 96.7085 250.994 96.0054C251.917 95.3022 253.016 94.7603 254.29 94.3794C255.579 93.9839 257.015 93.7861 258.597 93.7861C260.486 93.7861 262.171 94.1011 263.65 94.731C265.145 95.3608 266.324 96.3057 267.188 97.5654C268.052 98.8105 268.484 100.378 268.484 102.268V112.001C268.484 113.554 268.572 114.733 268.748 115.539C268.924 116.33 269.173 117.026 269.495 117.626V118H262.068C261.717 117.268 261.453 116.374 261.277 115.319C261.116 114.25 261.036 113.151 261.036 112.023ZM261.937 103.476L261.98 107.431H258.707C258.018 107.431 257.432 107.526 256.949 107.717C256.48 107.907 256.099 108.171 255.806 108.508C255.528 108.83 255.323 109.196 255.191 109.606C255.074 110.017 255.015 110.449 255.015 110.903C255.015 111.342 255.118 111.738 255.323 112.089C255.542 112.426 255.835 112.69 256.202 112.88C256.568 113.071 256.978 113.166 257.432 113.166C258.252 113.166 258.948 113.012 259.52 112.705C260.105 112.382 260.552 111.994 260.86 111.54C261.167 111.086 261.321 110.661 261.321 110.266L262.947 113.298C262.654 113.884 262.317 114.477 261.937 115.078C261.57 115.678 261.109 116.235 260.552 116.748C260.01 117.246 259.344 117.656 258.553 117.978C257.762 118.286 256.802 118.439 255.674 118.439C254.209 118.439 252.862 118.139 251.631 117.539C250.416 116.938 249.441 116.103 248.709 115.034C247.977 113.95 247.61 112.705 247.61 111.298C247.61 110.068 247.83 108.969 248.27 108.002C248.724 107.036 249.405 106.215 250.313 105.542C251.221 104.868 252.378 104.355 253.785 104.003C255.191 103.652 256.846 103.476 258.75 103.476H261.937ZM282.635 112.727C283.323 112.727 283.909 112.602 284.393 112.353C284.891 112.089 285.264 111.723 285.513 111.254C285.777 110.771 285.901 110.192 285.887 109.519H292.852C292.867 111.306 292.427 112.873 291.534 114.221C290.655 115.554 289.454 116.594 287.93 117.341C286.421 118.073 284.715 118.439 282.811 118.439C280.95 118.439 279.324 118.139 277.933 117.539C276.541 116.923 275.376 116.074 274.439 114.99C273.516 113.891 272.82 112.609 272.352 111.145C271.897 109.68 271.67 108.09 271.67 106.376V105.871C271.67 104.157 271.897 102.568 272.352 101.103C272.82 99.6235 273.516 98.3418 274.439 97.2578C275.376 96.1592 276.534 95.3096 277.911 94.709C279.302 94.0938 280.921 93.7861 282.767 93.7861C284.744 93.7861 286.487 94.1597 287.996 94.9067C289.52 95.6538 290.713 96.7378 291.578 98.1587C292.442 99.5796 292.867 101.301 292.852 103.322H285.887C285.901 102.604 285.792 101.96 285.557 101.389C285.323 100.817 284.957 100.363 284.458 100.026C283.975 99.6748 283.353 99.499 282.591 99.499C281.829 99.499 281.214 99.6675 280.745 100.004C280.276 100.341 279.917 100.81 279.668 101.411C279.434 101.997 279.273 102.67 279.185 103.432C279.112 104.194 279.075 105.007 279.075 105.871V106.376C279.075 107.255 279.112 108.083 279.185 108.859C279.273 109.621 279.441 110.295 279.69 110.881C279.939 111.452 280.298 111.906 280.767 112.243C281.236 112.565 281.858 112.727 282.635 112.727ZM303.487 84.228V118H296.082V84.228H303.487ZM318.692 94.2256L308.365 106.333L302.959 111.738L299.729 107.036L304.234 101.169L309.815 94.2256H318.692ZM310.76 118L304.41 107.167L309.881 103.278L319.241 118H310.76Z" fill="#424241"/>
<path d="M1363 15C1363 6.71573 1356.28 0 1348 0H1134V167H1348C1356.28 167 1363 160.284 1363 152V15Z" fill="#1B8B6A"/>
</svg>
