<svg width="1363" height="167" viewBox="0 0 1363 167" fill="none" xmlns="http://www.w3.org/2000/svg">
<rect width="1363" height="167" rx="15" fill="#F0F0F0"/>
<path d="M0 15C0 6.71573 6.71573 0 15 0H37V167H15C6.71573 167 0 160.284 0 152V15Z" fill="#424241"/>
<path d="M100.906 54.9219L93.3945 52.2383V49.0859L103.602 53.375V55.6367L100.906 54.9219ZM93.3945 57.1719L100.918 54.4297L103.602 53.7852V56.0352L93.3945 60.3242V57.1719ZM121.789 56.3398H125.293C125.223 57.4883 124.906 58.5078 124.344 59.3984C123.789 60.2891 123.012 60.9844 122.012 61.4844C121.02 61.9844 119.824 62.2344 118.426 62.2344C117.332 62.2344 116.352 62.0469 115.484 61.6719C114.617 61.2891 113.875 60.7422 113.258 60.0312C112.648 59.3203 112.184 58.4609 111.863 57.4531C111.543 56.4453 111.383 55.3164 111.383 54.0664V52.8828C111.383 51.6328 111.547 50.5039 111.875 49.4961C112.211 48.4805 112.688 47.6172 113.305 46.9062C113.93 46.1953 114.676 45.6484 115.543 45.2656C116.41 44.8828 117.379 44.6914 118.449 44.6914C119.871 44.6914 121.07 44.9492 122.047 45.4648C123.031 45.9805 123.793 46.6914 124.332 47.5977C124.879 48.5039 125.207 49.5352 125.316 50.6914H121.801C121.762 50.0039 121.625 49.4219 121.391 48.9453C121.156 48.4609 120.801 48.0977 120.324 47.8555C119.855 47.6055 119.23 47.4805 118.449 47.4805C117.863 47.4805 117.352 47.5898 116.914 47.8086C116.477 48.0273 116.109 48.3594 115.812 48.8047C115.516 49.25 115.293 49.8125 115.145 50.4922C115.004 51.1641 114.934 51.9531 114.934 52.8594V54.0664C114.934 54.9492 115 55.7266 115.133 56.3984C115.266 57.0625 115.469 57.625 115.742 58.0859C116.023 58.5391 116.383 58.8828 116.82 59.1172C117.266 59.3438 117.801 59.457 118.426 59.457C119.16 59.457 119.766 59.3398 120.242 59.1055C120.719 58.8711 121.082 58.5234 121.332 58.0625C121.59 57.6016 121.742 57.0273 121.789 56.3398ZM130.953 44V62H127.566V44H130.953ZM137.305 49.3203V62H133.918V49.3203H137.305ZM133.707 46.0156C133.707 45.5234 133.879 45.1172 134.223 44.7969C134.566 44.4766 135.027 44.3164 135.605 44.3164C136.176 44.3164 136.633 44.4766 136.977 44.7969C137.328 45.1172 137.504 45.5234 137.504 46.0156C137.504 46.5078 137.328 46.9141 136.977 47.2344C136.633 47.5547 136.176 47.7148 135.605 47.7148C135.027 47.7148 134.566 47.5547 134.223 47.2344C133.879 46.9141 133.707 46.5078 133.707 46.0156ZM143.469 51.9453V62H140.082V49.3203H143.258L143.469 51.9453ZM143 55.2148H142.062C142.062 54.332 142.168 53.5195 142.379 52.7773C142.598 52.0273 142.914 51.3789 143.328 50.832C143.75 50.2773 144.27 49.8477 144.887 49.543C145.504 49.2383 146.219 49.0859 147.031 49.0859C147.594 49.0859 148.109 49.1719 148.578 49.3438C149.047 49.5078 149.449 49.7695 149.785 50.1289C150.129 50.4805 150.395 50.9414 150.582 51.5117C150.77 52.0742 150.863 52.75 150.863 53.5391V62H147.488V53.9141C147.488 53.3359 147.41 52.8906 147.254 52.5781C147.098 52.2656 146.875 52.0469 146.586 51.9219C146.305 51.7969 145.965 51.7344 145.566 51.7344C145.129 51.7344 144.746 51.8242 144.418 52.0039C144.098 52.1836 143.832 52.4336 143.621 52.7539C143.41 53.0664 143.254 53.4336 143.152 53.8555C143.051 54.2773 143 54.7305 143 55.2148ZM150.547 54.8281L149.34 54.9805C149.34 54.1523 149.441 53.3828 149.645 52.6719C149.855 51.9609 150.164 51.3359 150.57 50.7969C150.984 50.2578 151.496 49.8398 152.105 49.543C152.715 49.2383 153.418 49.0859 154.215 49.0859C154.824 49.0859 155.379 49.1758 155.879 49.3555C156.379 49.5273 156.805 49.8047 157.156 50.1875C157.516 50.5625 157.789 51.0547 157.977 51.6641C158.172 52.2734 158.27 53.0195 158.27 53.9023V62H154.883V53.9023C154.883 53.3164 154.805 52.8711 154.648 52.5664C154.5 52.2539 154.281 52.0391 153.992 51.9219C153.711 51.7969 153.375 51.7344 152.984 51.7344C152.578 51.7344 152.223 51.8164 151.918 51.9805C151.613 52.1367 151.359 52.3555 151.156 52.6367C150.953 52.918 150.801 53.2461 150.699 53.6211C150.598 53.9883 150.547 54.3906 150.547 54.8281ZM160.883 44H164.258V59.0938L163.918 62H160.883V44ZM172.285 55.5312V55.7773C172.285 56.7227 172.184 57.5898 171.98 58.3789C171.785 59.168 171.48 59.8516 171.066 60.4297C170.652 61 170.137 61.4453 169.52 61.7656C168.91 62.0781 168.191 62.2344 167.363 62.2344C166.59 62.2344 165.918 62.0781 165.348 61.7656C164.785 61.4531 164.312 61.0117 163.93 60.4414C163.547 59.8711 163.238 59.2031 163.004 58.4375C162.77 57.6719 162.594 56.8359 162.477 55.9297V55.3906C162.594 54.4844 162.77 53.6484 163.004 52.8828C163.238 52.1172 163.547 51.4492 163.93 50.8789C164.312 50.3086 164.785 49.8672 165.348 49.5547C165.91 49.2422 166.574 49.0859 167.34 49.0859C168.176 49.0859 168.902 49.2461 169.52 49.5664C170.145 49.8789 170.66 50.3242 171.066 50.9023C171.48 51.4727 171.785 52.1523 171.98 52.9414C172.184 53.7227 172.285 54.5859 172.285 55.5312ZM168.91 55.7773V55.5312C168.91 55.0156 168.871 54.5312 168.793 54.0781C168.723 53.6172 168.598 53.2148 168.418 52.8711C168.238 52.5195 167.992 52.2422 167.68 52.0391C167.375 51.8359 166.98 51.7344 166.496 51.7344C166.035 51.7344 165.645 51.8125 165.324 51.9688C165.004 52.125 164.738 52.3438 164.527 52.625C164.324 52.9062 164.172 53.2422 164.07 53.6328C163.969 54.0156 163.906 54.4375 163.883 54.8984V56.4336C163.906 57.0508 164.008 57.5977 164.188 58.0742C164.375 58.543 164.656 58.9141 165.031 59.1875C165.414 59.4531 165.91 59.5859 166.52 59.5859C166.996 59.5859 167.391 59.4922 167.703 59.3047C168.016 59.1172 168.258 58.8516 168.43 58.5078C168.609 58.1641 168.734 57.7617 168.805 57.3008C168.875 56.832 168.91 56.3242 168.91 55.7773ZM183.477 57.5352C183.477 57.2305 183.43 56.957 183.336 56.7148C183.25 56.4648 183.086 56.2383 182.844 56.0352C182.602 55.8242 182.262 55.6172 181.824 55.4141C181.387 55.2109 180.82 55 180.125 54.7812C179.352 54.5312 178.617 54.25 177.922 53.9375C177.234 53.625 176.625 53.2617 176.094 52.8477C175.57 52.4258 175.156 51.9375 174.852 51.3828C174.555 50.8281 174.406 50.1836 174.406 49.4492C174.406 48.7383 174.562 48.0938 174.875 47.5156C175.188 46.9297 175.625 46.4297 176.188 46.0156C176.75 45.5938 177.414 45.2695 178.18 45.043C178.953 44.8164 179.801 44.7031 180.723 44.7031C181.98 44.7031 183.078 44.9297 184.016 45.3828C184.953 45.8359 185.68 46.457 186.195 47.2461C186.719 48.0352 186.98 48.9375 186.98 49.9531H183.488C183.488 49.4531 183.383 49.0156 183.172 48.6406C182.969 48.2578 182.656 47.957 182.234 47.7383C181.82 47.5195 181.297 47.4102 180.664 47.4102C180.055 47.4102 179.547 47.5039 179.141 47.6914C178.734 47.8711 178.43 48.1172 178.227 48.4297C178.023 48.7344 177.922 49.0781 177.922 49.4609C177.922 49.75 177.992 50.0117 178.133 50.2461C178.281 50.4805 178.5 50.6992 178.789 50.9023C179.078 51.1055 179.434 51.2969 179.855 51.4766C180.277 51.6562 180.766 51.832 181.32 52.0039C182.25 52.2852 183.066 52.6016 183.77 52.9531C184.48 53.3047 185.074 53.6992 185.551 54.1367C186.027 54.5742 186.387 55.0703 186.629 55.625C186.871 56.1797 186.992 56.8086 186.992 57.5117C186.992 58.2539 186.848 58.918 186.559 59.5039C186.27 60.0898 185.852 60.5859 185.305 60.9922C184.758 61.3984 184.105 61.707 183.348 61.918C182.59 62.1289 181.742 62.2344 180.805 62.2344C179.961 62.2344 179.129 62.125 178.309 61.9062C177.488 61.6797 176.742 61.3398 176.07 60.8867C175.406 60.4336 174.875 59.8555 174.477 59.1523C174.078 58.4492 173.879 57.6172 173.879 56.6562H177.406C177.406 57.1875 177.488 57.6367 177.652 58.0039C177.816 58.3711 178.047 58.668 178.344 58.8945C178.648 59.1211 179.008 59.2852 179.422 59.3867C179.844 59.4883 180.305 59.5391 180.805 59.5391C181.414 59.5391 181.914 59.4531 182.305 59.2812C182.703 59.1094 182.996 58.8711 183.184 58.5664C183.379 58.2617 183.477 57.918 183.477 57.5352ZM192.734 49.3203V62H189.348V49.3203H192.734ZM189.137 46.0156C189.137 45.5234 189.309 45.1172 189.652 44.7969C189.996 44.4766 190.457 44.3164 191.035 44.3164C191.605 44.3164 192.062 44.4766 192.406 44.7969C192.758 45.1172 192.934 45.5234 192.934 46.0156C192.934 46.5078 192.758 46.9141 192.406 47.2344C192.062 47.5547 191.605 47.7148 191.035 47.7148C190.457 47.7148 189.996 47.5547 189.652 47.2344C189.309 46.9141 189.137 46.5078 189.137 46.0156ZM201.734 49.3203V51.7109H194.352V49.3203H201.734ZM196.18 46.1914H199.555V58.1797C199.555 58.5469 199.602 58.8281 199.695 59.0234C199.797 59.2188 199.945 59.3555 200.141 59.4336C200.336 59.5039 200.582 59.5391 200.879 59.5391C201.09 59.5391 201.277 59.5312 201.441 59.5156C201.613 59.4922 201.758 59.4688 201.875 59.4453L201.887 61.9297C201.598 62.0234 201.285 62.0977 200.949 62.1523C200.613 62.207 200.242 62.2344 199.836 62.2344C199.094 62.2344 198.445 62.1133 197.891 61.8711C197.344 61.6211 196.922 61.2227 196.625 60.6758C196.328 60.1289 196.18 59.4102 196.18 58.5195V46.1914ZM209.492 62.2344C208.508 62.2344 207.625 62.0781 206.844 61.7656C206.062 61.4453 205.398 61.0039 204.852 60.4414C204.312 59.8789 203.898 59.2266 203.609 58.4844C203.32 57.7344 203.176 56.9375 203.176 56.0938V55.625C203.176 54.6641 203.312 53.7852 203.586 52.9883C203.859 52.1914 204.25 51.5 204.758 50.9141C205.273 50.3281 205.898 49.8789 206.633 49.5664C207.367 49.2461 208.195 49.0859 209.117 49.0859C210.016 49.0859 210.812 49.2344 211.508 49.5312C212.203 49.8281 212.785 50.25 213.254 50.7969C213.73 51.3438 214.09 52 214.332 52.7656C214.574 53.5234 214.695 54.3672 214.695 55.2969V56.7031H204.617V54.4531H211.379V54.1953C211.379 53.7266 211.293 53.3086 211.121 52.9414C210.957 52.5664 210.707 52.2695 210.371 52.0508C210.035 51.832 209.605 51.7227 209.082 51.7227C208.637 51.7227 208.254 51.8203 207.934 52.0156C207.613 52.2109 207.352 52.4844 207.148 52.8359C206.953 53.1875 206.805 53.6016 206.703 54.0781C206.609 54.5469 206.562 55.0625 206.562 55.625V56.0938C206.562 56.6016 206.633 57.0703 206.773 57.5C206.922 57.9297 207.129 58.3008 207.395 58.6133C207.668 58.9258 207.996 59.168 208.379 59.3398C208.77 59.5117 209.211 59.5977 209.703 59.5977C210.312 59.5977 210.879 59.4805 211.402 59.2461C211.934 59.0039 212.391 58.6406 212.773 58.1562L214.414 59.9375C214.148 60.3203 213.785 60.6875 213.324 61.0391C212.871 61.3906 212.324 61.6797 211.684 61.9062C211.043 62.125 210.312 62.2344 209.492 62.2344Z" fill="#888888"/>
<path d="M101.822 115.1L108.194 86.0078H111.995L114.061 88.4907L107.271 118H103.074L101.822 115.1ZM100.13 86.0078L105.513 115.319L104.129 118H99.2729L92.4834 86.0078H100.13ZM117.554 115.166L122.894 86.0078H130.518L123.729 118H118.895L117.554 115.166ZM114.742 86.0078L121.268 115.275L119.949 118H115.752L108.809 88.4468L110.962 86.0078H114.742ZM141.021 94.2256V118H133.594V94.2256H141.021ZM133.155 88.0952C133.155 87.0405 133.536 86.1763 134.297 85.5024C135.059 84.8286 136.048 84.4917 137.264 84.4917C138.479 84.4917 139.468 84.8286 140.23 85.5024C140.992 86.1763 141.373 87.0405 141.373 88.0952C141.373 89.1499 140.992 90.0142 140.23 90.688C139.468 91.3618 138.479 91.6987 137.264 91.6987C136.048 91.6987 135.059 91.3618 134.297 90.688C133.536 90.0142 133.155 89.1499 133.155 88.0952ZM153.062 100.114V118H145.657V94.2256H152.579L153.062 100.114ZM160.093 94.0498L159.961 100.927C159.668 100.898 159.273 100.861 158.775 100.817C158.277 100.773 157.859 100.751 157.522 100.751C156.658 100.751 155.911 100.854 155.281 101.059C154.666 101.25 154.153 101.542 153.743 101.938C153.348 102.319 153.055 102.802 152.864 103.388C152.688 103.974 152.608 104.655 152.623 105.432L151.282 104.553C151.282 102.956 151.436 101.506 151.744 100.202C152.066 98.8838 152.52 97.7485 153.106 96.7964C153.692 95.8296 154.402 95.0898 155.237 94.5771C156.072 94.0498 157.01 93.7861 158.05 93.7861C158.416 93.7861 158.775 93.8081 159.126 93.8521C159.493 93.896 159.815 93.9619 160.093 94.0498ZM173.716 118.439C171.783 118.439 170.054 118.139 168.531 117.539C167.007 116.923 165.718 116.081 164.664 115.012C163.624 113.942 162.825 112.712 162.269 111.32C161.727 109.929 161.456 108.457 161.456 106.904V106.069C161.456 104.326 161.697 102.714 162.181 101.235C162.664 99.7407 163.382 98.437 164.334 97.3237C165.286 96.2104 166.48 95.3462 167.916 94.731C169.351 94.1011 171.021 93.7861 172.925 93.7861C174.61 93.7861 176.119 94.0571 177.452 94.5991C178.785 95.1411 179.913 95.9175 180.835 96.9282C181.773 97.939 182.483 99.1621 182.967 100.598C183.465 102.033 183.714 103.645 183.714 105.432V108.442H164.29V103.806H176.485V103.234C176.5 102.443 176.36 101.77 176.067 101.213C175.789 100.656 175.379 100.231 174.837 99.9385C174.295 99.6455 173.636 99.499 172.859 99.499C172.054 99.499 171.387 99.6748 170.86 100.026C170.347 100.378 169.944 100.861 169.651 101.477C169.373 102.077 169.175 102.773 169.058 103.564C168.941 104.355 168.882 105.19 168.882 106.069V106.904C168.882 107.783 169 108.581 169.234 109.299C169.483 110.017 169.834 110.632 170.289 111.145C170.757 111.643 171.314 112.031 171.958 112.309C172.618 112.587 173.365 112.727 174.2 112.727C175.21 112.727 176.207 112.536 177.188 112.155C178.169 111.774 179.012 111.145 179.715 110.266L183.077 114.265C182.593 114.953 181.905 115.62 181.011 116.264C180.132 116.909 179.078 117.436 177.847 117.846C176.617 118.242 175.24 118.439 173.716 118.439ZM195.799 118H188.35V92.292C188.35 90.4463 188.724 88.8936 189.471 87.6338C190.218 86.374 191.272 85.4219 192.635 84.7773C193.997 84.1182 195.608 83.7886 197.469 83.7886C198.113 83.7886 198.721 83.8325 199.292 83.9204C199.864 84.0083 200.42 84.1182 200.962 84.25L200.984 89.6992C200.721 89.626 200.45 89.5747 200.171 89.5454C199.893 89.5161 199.549 89.5015 199.139 89.5015C198.421 89.5015 197.813 89.6113 197.315 89.8311C196.817 90.0361 196.436 90.3511 196.172 90.7759C195.923 91.186 195.799 91.6914 195.799 92.292V118ZM200.413 94.2256V99.3672H184.922V94.2256H200.413ZM210.542 100.114V118H203.138V94.2256H210.059L210.542 100.114ZM217.574 94.0498L217.442 100.927C217.149 100.898 216.753 100.861 216.255 100.817C215.757 100.773 215.34 100.751 215.003 100.751C214.139 100.751 213.392 100.854 212.762 101.059C212.146 101.25 211.634 101.542 211.224 101.938C210.828 102.319 210.535 102.802 210.345 103.388C210.169 103.974 210.088 104.655 210.103 105.432L208.763 104.553C208.763 102.956 208.917 101.506 209.224 100.202C209.546 98.8838 210 97.7485 210.586 96.7964C211.172 95.8296 211.883 95.0898 212.718 94.5771C213.553 94.0498 214.49 93.7861 215.53 93.7861C215.896 93.7861 216.255 93.8081 216.607 93.8521C216.973 93.896 217.295 93.9619 217.574 94.0498ZM231.812 112.023V102.224C231.812 101.55 231.717 100.971 231.526 100.488C231.336 100.004 231.036 99.6309 230.625 99.3672C230.215 99.0889 229.666 98.9497 228.978 98.9497C228.421 98.9497 227.945 99.0449 227.549 99.2354C227.154 99.4258 226.854 99.7114 226.648 100.092C226.443 100.473 226.341 100.957 226.341 101.542H218.936C218.936 100.444 219.178 99.4258 219.661 98.4883C220.159 97.5361 220.862 96.7085 221.771 96.0054C222.693 95.3022 223.792 94.7603 225.066 94.3794C226.355 93.9839 227.791 93.7861 229.373 93.7861C231.263 93.7861 232.947 94.1011 234.427 94.731C235.921 95.3608 237.1 96.3057 237.964 97.5654C238.829 98.8105 239.261 100.378 239.261 102.268V112.001C239.261 113.554 239.349 114.733 239.524 115.539C239.7 116.33 239.949 117.026 240.271 117.626V118H232.845C232.493 117.268 232.229 116.374 232.054 115.319C231.893 114.25 231.812 113.151 231.812 112.023ZM232.713 103.476L232.757 107.431H229.483C228.794 107.431 228.208 107.526 227.725 107.717C227.256 107.907 226.875 108.171 226.583 108.508C226.304 108.83 226.099 109.196 225.967 109.606C225.85 110.017 225.792 110.449 225.792 110.903C225.792 111.342 225.894 111.738 226.099 112.089C226.319 112.426 226.612 112.69 226.978 112.88C227.344 113.071 227.754 113.166 228.208 113.166C229.029 113.166 229.725 113.012 230.296 112.705C230.882 112.382 231.329 111.994 231.636 111.54C231.944 111.086 232.098 110.661 232.098 110.266L233.724 113.298C233.431 113.884 233.094 114.477 232.713 115.078C232.347 115.678 231.885 116.235 231.329 116.748C230.787 117.246 230.12 117.656 229.329 117.978C228.538 118.286 227.579 118.439 226.451 118.439C224.986 118.439 223.638 118.139 222.408 117.539C221.192 116.938 220.218 116.103 219.485 115.034C218.753 113.95 218.387 112.705 218.387 111.298C218.387 110.068 218.606 108.969 219.046 108.002C219.5 107.036 220.181 106.215 221.089 105.542C221.998 104.868 223.155 104.355 224.561 104.003C225.967 103.652 227.623 103.476 229.527 103.476H232.713ZM250.84 99.2573V118H243.436V94.2256H250.379L250.84 99.2573ZM249.939 105.3L248.248 105.344C248.248 103.674 248.445 102.136 248.841 100.729C249.236 99.3232 249.822 98.1001 250.599 97.0601C251.375 96.02 252.327 95.2144 253.455 94.6431C254.598 94.0718 255.916 93.7861 257.41 93.7861C258.45 93.7861 259.395 93.9473 260.245 94.2695C261.094 94.5771 261.827 95.0679 262.442 95.7417C263.057 96.4009 263.526 97.2651 263.848 98.3345C264.185 99.3892 264.354 100.656 264.354 102.136V118H256.949V103.081C256.949 102.07 256.832 101.308 256.597 100.795C256.377 100.283 256.055 99.9385 255.63 99.7627C255.206 99.5869 254.686 99.499 254.07 99.499C253.426 99.499 252.847 99.6455 252.334 99.9385C251.822 100.231 251.382 100.642 251.016 101.169C250.665 101.682 250.394 102.29 250.203 102.993C250.027 103.696 249.939 104.465 249.939 105.3ZM263.519 105.3L261.453 105.344C261.453 103.674 261.636 102.136 262.002 100.729C262.383 99.3232 262.947 98.1001 263.694 97.0601C264.456 96.02 265.401 95.2144 266.529 94.6431C267.657 94.0718 268.968 93.7861 270.462 93.7861C271.546 93.7861 272.542 93.9473 273.45 94.2695C274.358 94.5918 275.142 95.1118 275.801 95.8296C276.46 96.5474 276.973 97.4995 277.339 98.686C277.706 99.8579 277.889 101.308 277.889 103.037V118H270.462V103.037C270.462 102.055 270.345 101.315 270.11 100.817C269.891 100.305 269.568 99.9604 269.144 99.7847C268.719 99.5942 268.213 99.499 267.627 99.499C266.924 99.499 266.316 99.6455 265.804 99.9385C265.291 100.231 264.859 100.642 264.507 101.169C264.17 101.682 263.921 102.29 263.76 102.993C263.599 103.696 263.519 104.465 263.519 105.3ZM293.643 118.439C291.709 118.439 289.981 118.139 288.458 117.539C286.934 116.923 285.645 116.081 284.59 115.012C283.55 113.942 282.752 112.712 282.195 111.32C281.653 109.929 281.382 108.457 281.382 106.904V106.069C281.382 104.326 281.624 102.714 282.107 101.235C282.591 99.7407 283.309 98.437 284.261 97.3237C285.213 96.2104 286.407 95.3462 287.842 94.731C289.278 94.1011 290.948 93.7861 292.852 93.7861C294.537 93.7861 296.045 94.0571 297.378 94.5991C298.711 95.1411 299.839 95.9175 300.762 96.9282C301.7 97.939 302.41 99.1621 302.894 100.598C303.392 102.033 303.641 103.645 303.641 105.432V108.442H284.217V103.806H296.412V103.234C296.426 102.443 296.287 101.77 295.994 101.213C295.716 100.656 295.306 100.231 294.764 99.9385C294.222 99.6455 293.562 99.499 292.786 99.499C291.98 99.499 291.314 99.6748 290.787 100.026C290.274 100.378 289.871 100.861 289.578 101.477C289.3 102.077 289.102 102.773 288.985 103.564C288.868 104.355 288.809 105.19 288.809 106.069V106.904C288.809 107.783 288.926 108.581 289.161 109.299C289.41 110.017 289.761 110.632 290.215 111.145C290.684 111.643 291.241 112.031 291.885 112.309C292.544 112.587 293.292 112.727 294.126 112.727C295.137 112.727 296.133 112.536 297.115 112.155C298.096 111.774 298.938 111.145 299.642 110.266L303.003 114.265C302.52 114.953 301.832 115.62 300.938 116.264C300.059 116.909 299.004 117.436 297.774 117.846C296.543 118.242 295.167 118.439 293.643 118.439ZM319.109 111.32C319.109 110.91 318.97 110.559 318.692 110.266C318.428 109.958 317.959 109.68 317.286 109.431C316.612 109.167 315.667 108.903 314.451 108.64C313.294 108.391 312.203 108.061 311.177 107.651C310.167 107.241 309.28 106.743 308.519 106.157C307.757 105.571 307.156 104.875 306.717 104.069C306.292 103.264 306.08 102.341 306.08 101.301C306.08 100.29 306.292 99.3379 306.717 98.4443C307.156 97.5361 307.793 96.7378 308.628 96.0493C309.478 95.3462 310.511 94.7969 311.727 94.4014C312.942 93.9912 314.327 93.7861 315.879 93.7861C318.018 93.7861 319.864 94.1157 321.417 94.7749C322.969 95.4194 324.163 96.3276 324.998 97.4995C325.848 98.6567 326.272 99.9971 326.272 101.521H318.868C318.868 100.92 318.765 100.407 318.56 99.9824C318.37 99.5576 318.055 99.2354 317.615 99.0156C317.176 98.7812 316.59 98.6641 315.857 98.6641C315.345 98.6641 314.876 98.7593 314.451 98.9497C314.041 99.1401 313.711 99.4038 313.462 99.7407C313.213 100.078 313.089 100.473 313.089 100.927C313.089 101.25 313.162 101.542 313.309 101.806C313.47 102.055 313.711 102.29 314.034 102.509C314.356 102.714 314.766 102.905 315.264 103.081C315.762 103.242 316.363 103.388 317.066 103.52C318.663 103.813 320.157 104.23 321.548 104.772C322.94 105.314 324.068 106.083 324.932 107.08C325.811 108.076 326.25 109.416 326.25 111.101C326.25 112.155 326.009 113.129 325.525 114.023C325.042 114.902 324.346 115.678 323.438 116.352C322.53 117.011 321.438 117.524 320.164 117.89C318.89 118.256 317.454 118.439 315.857 118.439C313.587 118.439 311.668 118.037 310.101 117.231C308.533 116.411 307.347 115.385 306.541 114.155C305.75 112.91 305.354 111.65 305.354 110.375H312.254C312.283 111.108 312.459 111.708 312.781 112.177C313.118 112.646 313.565 112.99 314.122 113.21C314.678 113.43 315.323 113.54 316.055 113.54C316.729 113.54 317.286 113.444 317.725 113.254C318.179 113.063 318.523 112.807 318.758 112.485C318.992 112.148 319.109 111.76 319.109 111.32Z" fill="#424241"/>
<path d="M1363 15C1363 6.71573 1356.28 0 1348 0H1134V167H1348C1356.28 167 1363 160.284 1363 152V15Z" fill="#1B8B6A"/>
<path fill-rule="evenodd" clip-rule="evenodd" d="M1203 49C1203 47.8954 1203.9 47 1205 47H1292.5C1293.6 47 1294.5 47.8954 1294.5 49V118.996C1294.5 120.101 1293.6 120.996 1292.5 120.996H1205C1203.9 120.996 1203 120.101 1203 118.996V49ZM1207 51V55.4945H1290.5V51H1207ZM1290.5 59.4945H1235.44V116.996H1290.5V59.4945ZM1231.44 116.996V59.4945H1207V116.996H1231.44Z" fill="white"/>
<path fill-rule="evenodd" clip-rule="evenodd" d="M1209.97 64.8004C1209.97 63.6958 1210.87 62.8004 1211.97 62.8004H1225.97C1227.08 62.8004 1227.97 63.6958 1227.97 64.8004V84.1956C1227.97 85.3001 1227.08 86.1956 1225.97 86.1956H1211.97C1210.87 86.1956 1209.97 85.3001 1209.97 84.1956V64.8004ZM1213.97 66.8004V82.1956H1223.97V66.8004H1213.97ZM1239.58 65.6964C1239.58 64.5918 1240.47 63.6964 1241.58 63.6964H1284.5C1285.61 63.6964 1286.5 64.5918 1286.5 65.6964V111.905C1286.5 113.01 1285.61 113.905 1284.5 113.905H1241.58C1240.47 113.905 1239.58 113.01 1239.58 111.905V65.6964ZM1243.58 67.6964V109.905H1282.5V67.6964H1243.58ZM1209.81 95.9363C1209.81 94.8317 1210.71 93.9363 1211.81 93.9363H1220.73C1221.84 93.9363 1222.73 94.8317 1222.73 95.9363C1222.73 97.0409 1221.84 97.9363 1220.73 97.9363H1211.81C1210.71 97.9363 1209.81 97.0409 1209.81 95.9363ZM1209.81 102.936C1209.81 101.832 1210.71 100.936 1211.81 100.936H1226.35C1227.46 100.936 1228.35 101.832 1228.35 102.936C1228.35 104.041 1227.46 104.936 1226.35 104.936H1211.81C1210.71 104.936 1209.81 104.041 1209.81 102.936ZM1209.81 109.936C1209.81 108.832 1210.71 107.936 1211.81 107.936H1220.73C1221.84 107.936 1222.73 108.832 1222.73 109.936C1222.73 111.041 1221.84 111.936 1220.73 111.936H1211.81C1210.71 111.936 1209.81 111.041 1209.81 109.936Z" fill="white"/>
</svg>
