<svg width="1363" height="167" viewBox="0 0 1363 167" fill="none" xmlns="http://www.w3.org/2000/svg">
<rect width="1363" height="167" rx="15" fill="#F0F0F0"/>
<path d="M0 15C0 6.71573 6.71573 0 15 0H37V167H15C6.71573 167 0 160.284 0 152V15Z" fill="#424241"/>
<path d="M100.906 54.9219L93.3945 52.2383V49.0859L103.602 53.375V55.6367L100.906 54.9219ZM93.3945 57.1719L100.918 54.4297L103.602 53.7852V56.0352L93.3945 60.3242V57.1719ZM121.789 56.3398H125.293C125.223 57.4883 124.906 58.5078 124.344 59.3984C123.789 60.2891 123.012 60.9844 122.012 61.4844C121.02 61.9844 119.824 62.2344 118.426 62.2344C117.332 62.2344 116.352 62.0469 115.484 61.6719C114.617 61.2891 113.875 60.7422 113.258 60.0312C112.648 59.3203 112.184 58.4609 111.863 57.4531C111.543 56.4453 111.383 55.3164 111.383 54.0664V52.8828C111.383 51.6328 111.547 50.5039 111.875 49.4961C112.211 48.4805 112.688 47.6172 113.305 46.9062C113.93 46.1953 114.676 45.6484 115.543 45.2656C116.41 44.8828 117.379 44.6914 118.449 44.6914C119.871 44.6914 121.07 44.9492 122.047 45.4648C123.031 45.9805 123.793 46.6914 124.332 47.5977C124.879 48.5039 125.207 49.5352 125.316 50.6914H121.801C121.762 50.0039 121.625 49.4219 121.391 48.9453C121.156 48.4609 120.801 48.0977 120.324 47.8555C119.855 47.6055 119.23 47.4805 118.449 47.4805C117.863 47.4805 117.352 47.5898 116.914 47.8086C116.477 48.0273 116.109 48.3594 115.812 48.8047C115.516 49.25 115.293 49.8125 115.145 50.4922C115.004 51.1641 114.934 51.9531 114.934 52.8594V54.0664C114.934 54.9492 115 55.7266 115.133 56.3984C115.266 57.0625 115.469 57.625 115.742 58.0859C116.023 58.5391 116.383 58.8828 116.82 59.1172C117.266 59.3438 117.801 59.457 118.426 59.457C119.16 59.457 119.766 59.3398 120.242 59.1055C120.719 58.8711 121.082 58.5234 121.332 58.0625C121.59 57.6016 121.742 57.0273 121.789 56.3398ZM130.953 44V62H127.566V44H130.953ZM137.305 49.3203V62H133.918V49.3203H137.305ZM133.707 46.0156C133.707 45.5234 133.879 45.1172 134.223 44.7969C134.566 44.4766 135.027 44.3164 135.605 44.3164C136.176 44.3164 136.633 44.4766 136.977 44.7969C137.328 45.1172 137.504 45.5234 137.504 46.0156C137.504 46.5078 137.328 46.9141 136.977 47.2344C136.633 47.5547 136.176 47.7148 135.605 47.7148C135.027 47.7148 134.566 47.5547 134.223 47.2344C133.879 46.9141 133.707 46.5078 133.707 46.0156ZM143.469 51.9453V62H140.082V49.3203H143.258L143.469 51.9453ZM143 55.2148H142.062C142.062 54.332 142.168 53.5195 142.379 52.7773C142.598 52.0273 142.914 51.3789 143.328 50.832C143.75 50.2773 144.27 49.8477 144.887 49.543C145.504 49.2383 146.219 49.0859 147.031 49.0859C147.594 49.0859 148.109 49.1719 148.578 49.3438C149.047 49.5078 149.449 49.7695 149.785 50.1289C150.129 50.4805 150.395 50.9414 150.582 51.5117C150.77 52.0742 150.863 52.75 150.863 53.5391V62H147.488V53.9141C147.488 53.3359 147.41 52.8906 147.254 52.5781C147.098 52.2656 146.875 52.0469 146.586 51.9219C146.305 51.7969 145.965 51.7344 145.566 51.7344C145.129 51.7344 144.746 51.8242 144.418 52.0039C144.098 52.1836 143.832 52.4336 143.621 52.7539C143.41 53.0664 143.254 53.4336 143.152 53.8555C143.051 54.2773 143 54.7305 143 55.2148ZM150.547 54.8281L149.34 54.9805C149.34 54.1523 149.441 53.3828 149.645 52.6719C149.855 51.9609 150.164 51.3359 150.57 50.7969C150.984 50.2578 151.496 49.8398 152.105 49.543C152.715 49.2383 153.418 49.0859 154.215 49.0859C154.824 49.0859 155.379 49.1758 155.879 49.3555C156.379 49.5273 156.805 49.8047 157.156 50.1875C157.516 50.5625 157.789 51.0547 157.977 51.6641C158.172 52.2734 158.27 53.0195 158.27 53.9023V62H154.883V53.9023C154.883 53.3164 154.805 52.8711 154.648 52.5664C154.5 52.2539 154.281 52.0391 153.992 51.9219C153.711 51.7969 153.375 51.7344 152.984 51.7344C152.578 51.7344 152.223 51.8164 151.918 51.9805C151.613 52.1367 151.359 52.3555 151.156 52.6367C150.953 52.918 150.801 53.2461 150.699 53.6211C150.598 53.9883 150.547 54.3906 150.547 54.8281ZM160.883 44H164.258V59.0938L163.918 62H160.883V44ZM172.285 55.5312V55.7773C172.285 56.7227 172.184 57.5898 171.98 58.3789C171.785 59.168 171.48 59.8516 171.066 60.4297C170.652 61 170.137 61.4453 169.52 61.7656C168.91 62.0781 168.191 62.2344 167.363 62.2344C166.59 62.2344 165.918 62.0781 165.348 61.7656C164.785 61.4531 164.312 61.0117 163.93 60.4414C163.547 59.8711 163.238 59.2031 163.004 58.4375C162.77 57.6719 162.594 56.8359 162.477 55.9297V55.3906C162.594 54.4844 162.77 53.6484 163.004 52.8828C163.238 52.1172 163.547 51.4492 163.93 50.8789C164.312 50.3086 164.785 49.8672 165.348 49.5547C165.91 49.2422 166.574 49.0859 167.34 49.0859C168.176 49.0859 168.902 49.2461 169.52 49.5664C170.145 49.8789 170.66 50.3242 171.066 50.9023C171.48 51.4727 171.785 52.1523 171.98 52.9414C172.184 53.7227 172.285 54.5859 172.285 55.5312ZM168.91 55.7773V55.5312C168.91 55.0156 168.871 54.5312 168.793 54.0781C168.723 53.6172 168.598 53.2148 168.418 52.8711C168.238 52.5195 167.992 52.2422 167.68 52.0391C167.375 51.8359 166.98 51.7344 166.496 51.7344C166.035 51.7344 165.645 51.8125 165.324 51.9688C165.004 52.125 164.738 52.3438 164.527 52.625C164.324 52.9062 164.172 53.2422 164.07 53.6328C163.969 54.0156 163.906 54.4375 163.883 54.8984V56.4336C163.906 57.0508 164.008 57.5977 164.188 58.0742C164.375 58.543 164.656 58.9141 165.031 59.1875C165.414 59.4531 165.91 59.5859 166.52 59.5859C166.996 59.5859 167.391 59.4922 167.703 59.3047C168.016 59.1172 168.258 58.8516 168.43 58.5078C168.609 58.1641 168.734 57.7617 168.805 57.3008C168.875 56.832 168.91 56.3242 168.91 55.7773ZM183.477 57.5352C183.477 57.2305 183.43 56.957 183.336 56.7148C183.25 56.4648 183.086 56.2383 182.844 56.0352C182.602 55.8242 182.262 55.6172 181.824 55.4141C181.387 55.2109 180.82 55 180.125 54.7812C179.352 54.5312 178.617 54.25 177.922 53.9375C177.234 53.625 176.625 53.2617 176.094 52.8477C175.57 52.4258 175.156 51.9375 174.852 51.3828C174.555 50.8281 174.406 50.1836 174.406 49.4492C174.406 48.7383 174.562 48.0938 174.875 47.5156C175.188 46.9297 175.625 46.4297 176.188 46.0156C176.75 45.5938 177.414 45.2695 178.18 45.043C178.953 44.8164 179.801 44.7031 180.723 44.7031C181.98 44.7031 183.078 44.9297 184.016 45.3828C184.953 45.8359 185.68 46.457 186.195 47.2461C186.719 48.0352 186.98 48.9375 186.98 49.9531H183.488C183.488 49.4531 183.383 49.0156 183.172 48.6406C182.969 48.2578 182.656 47.957 182.234 47.7383C181.82 47.5195 181.297 47.4102 180.664 47.4102C180.055 47.4102 179.547 47.5039 179.141 47.6914C178.734 47.8711 178.43 48.1172 178.227 48.4297C178.023 48.7344 177.922 49.0781 177.922 49.4609C177.922 49.75 177.992 50.0117 178.133 50.2461C178.281 50.4805 178.5 50.6992 178.789 50.9023C179.078 51.1055 179.434 51.2969 179.855 51.4766C180.277 51.6562 180.766 51.832 181.32 52.0039C182.25 52.2852 183.066 52.6016 183.77 52.9531C184.48 53.3047 185.074 53.6992 185.551 54.1367C186.027 54.5742 186.387 55.0703 186.629 55.625C186.871 56.1797 186.992 56.8086 186.992 57.5117C186.992 58.2539 186.848 58.918 186.559 59.5039C186.27 60.0898 185.852 60.5859 185.305 60.9922C184.758 61.3984 184.105 61.707 183.348 61.918C182.59 62.1289 181.742 62.2344 180.805 62.2344C179.961 62.2344 179.129 62.125 178.309 61.9062C177.488 61.6797 176.742 61.3398 176.07 60.8867C175.406 60.4336 174.875 59.8555 174.477 59.1523C174.078 58.4492 173.879 57.6172 173.879 56.6562H177.406C177.406 57.1875 177.488 57.6367 177.652 58.0039C177.816 58.3711 178.047 58.668 178.344 58.8945C178.648 59.1211 179.008 59.2852 179.422 59.3867C179.844 59.4883 180.305 59.5391 180.805 59.5391C181.414 59.5391 181.914 59.4531 182.305 59.2812C182.703 59.1094 182.996 58.8711 183.184 58.5664C183.379 58.2617 183.477 57.918 183.477 57.5352ZM192.734 49.3203V62H189.348V49.3203H192.734ZM189.137 46.0156C189.137 45.5234 189.309 45.1172 189.652 44.7969C189.996 44.4766 190.457 44.3164 191.035 44.3164C191.605 44.3164 192.062 44.4766 192.406 44.7969C192.758 45.1172 192.934 45.5234 192.934 46.0156C192.934 46.5078 192.758 46.9141 192.406 47.2344C192.062 47.5547 191.605 47.7148 191.035 47.7148C190.457 47.7148 189.996 47.5547 189.652 47.2344C189.309 46.9141 189.137 46.5078 189.137 46.0156ZM201.734 49.3203V51.7109H194.352V49.3203H201.734ZM196.18 46.1914H199.555V58.1797C199.555 58.5469 199.602 58.8281 199.695 59.0234C199.797 59.2188 199.945 59.3555 200.141 59.4336C200.336 59.5039 200.582 59.5391 200.879 59.5391C201.09 59.5391 201.277 59.5312 201.441 59.5156C201.613 59.4922 201.758 59.4688 201.875 59.4453L201.887 61.9297C201.598 62.0234 201.285 62.0977 200.949 62.1523C200.613 62.207 200.242 62.2344 199.836 62.2344C199.094 62.2344 198.445 62.1133 197.891 61.8711C197.344 61.6211 196.922 61.2227 196.625 60.6758C196.328 60.1289 196.18 59.4102 196.18 58.5195V46.1914ZM209.492 62.2344C208.508 62.2344 207.625 62.0781 206.844 61.7656C206.062 61.4453 205.398 61.0039 204.852 60.4414C204.312 59.8789 203.898 59.2266 203.609 58.4844C203.32 57.7344 203.176 56.9375 203.176 56.0938V55.625C203.176 54.6641 203.312 53.7852 203.586 52.9883C203.859 52.1914 204.25 51.5 204.758 50.9141C205.273 50.3281 205.898 49.8789 206.633 49.5664C207.367 49.2461 208.195 49.0859 209.117 49.0859C210.016 49.0859 210.812 49.2344 211.508 49.5312C212.203 49.8281 212.785 50.25 213.254 50.7969C213.73 51.3438 214.09 52 214.332 52.7656C214.574 53.5234 214.695 54.3672 214.695 55.2969V56.7031H204.617V54.4531H211.379V54.1953C211.379 53.7266 211.293 53.3086 211.121 52.9414C210.957 52.5664 210.707 52.2695 210.371 52.0508C210.035 51.832 209.605 51.7227 209.082 51.7227C208.637 51.7227 208.254 51.8203 207.934 52.0156C207.613 52.2109 207.352 52.4844 207.148 52.8359C206.953 53.1875 206.805 53.6016 206.703 54.0781C206.609 54.5469 206.562 55.0625 206.562 55.625V56.0938C206.562 56.6016 206.633 57.0703 206.773 57.5C206.922 57.9297 207.129 58.3008 207.395 58.6133C207.668 58.9258 207.996 59.168 208.379 59.3398C208.77 59.5117 209.211 59.5977 209.703 59.5977C210.312 59.5977 210.879 59.4805 211.402 59.2461C211.934 59.0039 212.391 58.6406 212.773 58.1562L214.414 59.9375C214.148 60.3203 213.785 60.6875 213.324 61.0391C212.871 61.3906 212.324 61.6797 211.684 61.9062C211.043 62.125 210.312 62.2344 209.492 62.2344Z" fill="#888888"/>
<path d="M107.205 107.146H99.251V101.191H107.205C108.289 101.191 109.168 101.008 109.842 100.642C110.516 100.275 111.006 99.77 111.314 99.1255C111.636 98.4663 111.797 97.7266 111.797 96.9062C111.797 96.0273 111.636 95.2144 111.314 94.4673C111.006 93.7202 110.516 93.1196 109.842 92.6655C109.168 92.1968 108.289 91.9624 107.205 91.9624H102.151V118H94.439V86.0078H107.205C109.769 86.0078 111.973 86.4766 113.819 87.4141C115.679 88.3516 117.107 89.6406 118.104 91.2812C119.1 92.9072 119.598 94.7676 119.598 96.8623C119.598 98.9277 119.1 100.729 118.104 102.268C117.107 103.806 115.679 105.007 113.819 105.871C111.973 106.721 109.769 107.146 107.205 107.146ZM130.87 100.114V118H123.465V94.2256H130.386L130.87 100.114ZM137.901 94.0498L137.769 100.927C137.476 100.898 137.081 100.861 136.583 100.817C136.084 100.773 135.667 100.751 135.33 100.751C134.466 100.751 133.719 100.854 133.089 101.059C132.474 101.25 131.961 101.542 131.551 101.938C131.155 102.319 130.862 102.802 130.672 103.388C130.496 103.974 130.416 104.655 130.43 105.432L129.09 104.553C129.09 102.956 129.244 101.506 129.551 100.202C129.874 98.8838 130.328 97.7485 130.914 96.7964C131.5 95.8296 132.21 95.0898 133.045 94.5771C133.88 94.0498 134.817 93.7861 135.857 93.7861C136.224 93.7861 136.583 93.8081 136.934 93.8521C137.3 93.896 137.623 93.9619 137.901 94.0498ZM138.736 106.354V105.893C138.736 104.15 138.985 102.546 139.483 101.081C139.981 99.6016 140.713 98.3198 141.68 97.2358C142.647 96.1519 143.841 95.3096 145.262 94.709C146.683 94.0938 148.323 93.7861 150.184 93.7861C152.059 93.7861 153.707 94.0938 155.127 94.709C156.563 95.3096 157.764 96.1519 158.731 97.2358C159.698 98.3198 160.43 99.6016 160.928 101.081C161.426 102.546 161.675 104.15 161.675 105.893V106.354C161.675 108.083 161.426 109.687 160.928 111.167C160.43 112.631 159.698 113.913 158.731 115.012C157.764 116.096 156.57 116.938 155.149 117.539C153.729 118.139 152.088 118.439 150.228 118.439C148.367 118.439 146.719 118.139 145.284 117.539C143.848 116.938 142.647 116.096 141.68 115.012C140.713 113.913 139.981 112.631 139.483 111.167C138.985 109.687 138.736 108.083 138.736 106.354ZM146.141 105.893V106.354C146.141 107.248 146.207 108.083 146.338 108.859C146.47 109.636 146.69 110.317 146.998 110.903C147.305 111.474 147.723 111.921 148.25 112.243C148.777 112.565 149.437 112.727 150.228 112.727C151.004 112.727 151.648 112.565 152.161 112.243C152.688 111.921 153.106 111.474 153.414 110.903C153.721 110.317 153.941 109.636 154.073 108.859C154.205 108.083 154.271 107.248 154.271 106.354V105.893C154.271 105.029 154.205 104.216 154.073 103.454C153.941 102.678 153.721 101.997 153.414 101.411C153.106 100.81 152.688 100.341 152.161 100.004C151.634 99.6675 150.975 99.499 150.184 99.499C149.407 99.499 148.755 99.6675 148.228 100.004C147.715 100.341 147.305 100.81 146.998 101.411C146.69 101.997 146.47 102.678 146.338 103.454C146.207 104.216 146.141 105.029 146.141 105.893ZM165.521 94.2256H172.947V118.769C172.947 120.673 172.581 122.277 171.849 123.581C171.116 124.899 170.069 125.896 168.707 126.569C167.344 127.258 165.718 127.602 163.829 127.602C163.199 127.602 162.62 127.573 162.093 127.514C161.551 127.47 160.958 127.375 160.313 127.229V121.625C160.694 121.684 161.045 121.728 161.368 121.757C161.69 121.801 162.042 121.823 162.422 121.823C163.096 121.823 163.66 121.713 164.114 121.494C164.568 121.274 164.913 120.937 165.147 120.483C165.396 120.029 165.521 119.458 165.521 118.769V94.2256ZM164.971 88.0952C164.971 87.0405 165.352 86.1763 166.114 85.5024C166.875 84.8286 167.864 84.4917 169.08 84.4917C170.296 84.4917 171.285 84.8286 172.046 85.5024C172.808 86.1763 173.189 87.0405 173.189 88.0952C173.189 89.1499 172.808 90.0142 172.046 90.688C171.285 91.3618 170.296 91.6987 169.08 91.6987C167.864 91.6987 166.875 91.3618 166.114 90.688C165.352 90.0142 164.971 89.1499 164.971 88.0952ZM188.658 118.439C186.724 118.439 184.996 118.139 183.472 117.539C181.949 116.923 180.66 116.081 179.605 115.012C178.565 113.942 177.767 112.712 177.21 111.32C176.668 109.929 176.397 108.457 176.397 106.904V106.069C176.397 104.326 176.639 102.714 177.122 101.235C177.605 99.7407 178.323 98.437 179.275 97.3237C180.228 96.2104 181.421 95.3462 182.857 94.731C184.292 94.1011 185.962 93.7861 187.867 93.7861C189.551 93.7861 191.06 94.0571 192.393 94.5991C193.726 95.1411 194.854 95.9175 195.777 96.9282C196.714 97.939 197.425 99.1621 197.908 100.598C198.406 102.033 198.655 103.645 198.655 105.432V108.442H179.231V103.806H191.426V103.234C191.441 102.443 191.302 101.77 191.009 101.213C190.73 100.656 190.32 100.231 189.778 99.9385C189.236 99.6455 188.577 99.499 187.801 99.499C186.995 99.499 186.329 99.6748 185.801 100.026C185.289 100.378 184.886 100.861 184.593 101.477C184.314 102.077 184.117 102.773 184 103.564C183.882 104.355 183.824 105.19 183.824 106.069V106.904C183.824 107.783 183.941 108.581 184.175 109.299C184.424 110.017 184.776 110.632 185.23 111.145C185.699 111.643 186.255 112.031 186.9 112.309C187.559 112.587 188.306 112.727 189.141 112.727C190.152 112.727 191.148 112.536 192.129 112.155C193.111 111.774 193.953 111.145 194.656 110.266L198.018 114.265C197.535 114.953 196.846 115.62 195.953 116.264C195.074 116.909 194.019 117.436 192.789 117.846C191.558 118.242 190.181 118.439 188.658 118.439ZM211.707 112.727C212.396 112.727 212.981 112.602 213.465 112.353C213.963 112.089 214.336 111.723 214.585 111.254C214.849 110.771 214.974 110.192 214.959 109.519H221.924C221.939 111.306 221.5 112.873 220.606 114.221C219.727 115.554 218.526 116.594 217.002 117.341C215.494 118.073 213.787 118.439 211.883 118.439C210.022 118.439 208.396 118.139 207.005 117.539C205.613 116.923 204.449 116.074 203.511 114.99C202.588 113.891 201.893 112.609 201.424 111.145C200.97 109.68 200.743 108.09 200.743 106.376V105.871C200.743 104.157 200.97 102.568 201.424 101.103C201.893 99.6235 202.588 98.3418 203.511 97.2578C204.449 96.1592 205.606 95.3096 206.983 94.709C208.375 94.0938 209.993 93.7861 211.839 93.7861C213.816 93.7861 215.56 94.1597 217.068 94.9067C218.592 95.6538 219.786 96.7378 220.65 98.1587C221.514 99.5796 221.939 101.301 221.924 103.322H214.959C214.974 102.604 214.864 101.96 214.629 101.389C214.395 100.817 214.029 100.363 213.531 100.026C213.047 99.6748 212.425 99.499 211.663 99.499C210.901 99.499 210.286 99.6675 209.817 100.004C209.349 100.341 208.99 100.81 208.741 101.411C208.506 101.997 208.345 102.67 208.257 103.432C208.184 104.194 208.147 105.007 208.147 105.871V106.376C208.147 107.255 208.184 108.083 208.257 108.859C208.345 109.621 208.514 110.295 208.763 110.881C209.012 111.452 209.371 111.906 209.839 112.243C210.308 112.565 210.931 112.727 211.707 112.727ZM237.613 94.2256V99.3672H223.287V94.2256H237.613ZM226.297 88.3149H233.702V110.244C233.702 110.874 233.775 111.364 233.921 111.716C234.068 112.053 234.317 112.294 234.668 112.441C235.035 112.573 235.518 112.639 236.119 112.639C236.543 112.639 236.895 112.631 237.173 112.617C237.452 112.587 237.715 112.551 237.964 112.507V117.802C237.334 118.007 236.675 118.161 235.987 118.264C235.298 118.381 234.566 118.439 233.79 118.439C232.208 118.439 230.853 118.19 229.725 117.692C228.611 117.194 227.762 116.411 227.176 115.341C226.59 114.272 226.297 112.88 226.297 111.167V88.3149ZM264.881 107.146H256.927V101.191H264.881C265.965 101.191 266.844 101.008 267.518 100.642C268.191 100.275 268.682 99.77 268.99 99.1255C269.312 98.4663 269.473 97.7266 269.473 96.9062C269.473 96.0273 269.312 95.2144 268.99 94.4673C268.682 93.7202 268.191 93.1196 267.518 92.6655C266.844 92.1968 265.965 91.9624 264.881 91.9624H259.827V118H252.115V86.0078H264.881C267.444 86.0078 269.649 86.4766 271.495 87.4141C273.355 88.3516 274.783 89.6406 275.779 91.2812C276.775 92.9072 277.273 94.7676 277.273 96.8623C277.273 98.9277 276.775 100.729 275.779 102.268C274.783 103.806 273.355 105.007 271.495 105.871C269.649 106.721 267.444 107.146 264.881 107.146ZM288.326 84.25V118H280.921V84.25H288.326ZM287.447 105.3L285.711 105.344C285.711 103.674 285.916 102.136 286.326 100.729C286.736 99.3232 287.322 98.1001 288.084 97.0601C288.846 96.02 289.761 95.2144 290.831 94.6431C291.9 94.0718 293.086 93.7861 294.39 93.7861C295.562 93.7861 296.631 93.9546 297.598 94.2915C298.58 94.6284 299.422 95.1704 300.125 95.9175C300.843 96.6646 301.392 97.6387 301.773 98.8398C302.168 100.041 302.366 101.506 302.366 103.234V118H294.917V103.19C294.917 102.224 294.778 101.477 294.5 100.949C294.236 100.407 293.855 100.034 293.357 99.8286C292.859 99.6089 292.251 99.499 291.534 99.499C290.669 99.499 289.966 99.6455 289.424 99.9385C288.882 100.231 288.465 100.642 288.172 101.169C287.894 101.682 287.703 102.29 287.601 102.993C287.498 103.696 287.447 104.465 287.447 105.3ZM314.297 94.2256V118H306.871V94.2256H314.297ZM306.431 88.0952C306.431 87.0405 306.812 86.1763 307.574 85.5024C308.335 84.8286 309.324 84.4917 310.54 84.4917C311.756 84.4917 312.745 84.8286 313.506 85.5024C314.268 86.1763 314.649 87.0405 314.649 88.0952C314.649 89.1499 314.268 90.0142 313.506 90.688C312.745 91.3618 311.756 91.6987 310.54 91.6987C309.324 91.6987 308.335 91.3618 307.574 90.688C306.812 90.0142 306.431 89.1499 306.431 88.0952ZM326.69 84.25V118H319.263V84.25H326.69ZM330.337 106.354V105.893C330.337 104.15 330.586 102.546 331.084 101.081C331.583 99.6016 332.315 98.3198 333.282 97.2358C334.249 96.1519 335.442 95.3096 336.863 94.709C338.284 94.0938 339.925 93.7861 341.785 93.7861C343.66 93.7861 345.308 94.0938 346.729 94.709C348.165 95.3096 349.366 96.1519 350.333 97.2358C351.299 98.3198 352.032 99.6016 352.53 101.081C353.028 102.546 353.277 104.15 353.277 105.893V106.354C353.277 108.083 353.028 109.687 352.53 111.167C352.032 112.631 351.299 113.913 350.333 115.012C349.366 116.096 348.172 116.938 346.751 117.539C345.33 118.139 343.689 118.439 341.829 118.439C339.969 118.439 338.321 118.139 336.885 117.539C335.45 116.938 334.249 116.096 333.282 115.012C332.315 113.913 331.583 112.631 331.084 111.167C330.586 109.687 330.337 108.083 330.337 106.354ZM337.742 105.893V106.354C337.742 107.248 337.808 108.083 337.94 108.859C338.072 109.636 338.292 110.317 338.599 110.903C338.907 111.474 339.324 111.921 339.852 112.243C340.379 112.565 341.038 112.727 341.829 112.727C342.605 112.727 343.25 112.565 343.763 112.243C344.29 111.921 344.708 111.474 345.015 110.903C345.323 110.317 345.542 109.636 345.674 108.859C345.806 108.083 345.872 107.248 345.872 106.354V105.893C345.872 105.029 345.806 104.216 345.674 103.454C345.542 102.678 345.323 101.997 345.015 101.411C344.708 100.81 344.29 100.341 343.763 100.004C343.235 99.6675 342.576 99.499 341.785 99.499C341.009 99.499 340.357 99.6675 339.83 100.004C339.317 100.341 338.907 100.81 338.599 101.411C338.292 101.997 338.072 102.678 337.94 103.454C337.808 104.216 337.742 105.029 337.742 105.893ZM369.031 111.32C369.031 110.91 368.892 110.559 368.614 110.266C368.35 109.958 367.881 109.68 367.208 109.431C366.534 109.167 365.589 108.903 364.373 108.64C363.216 108.391 362.125 108.061 361.099 107.651C360.088 107.241 359.202 106.743 358.44 106.157C357.679 105.571 357.078 104.875 356.639 104.069C356.214 103.264 356.001 102.341 356.001 101.301C356.001 100.29 356.214 99.3379 356.639 98.4443C357.078 97.5361 357.715 96.7378 358.55 96.0493C359.4 95.3462 360.433 94.7969 361.648 94.4014C362.864 93.9912 364.249 93.7861 365.801 93.7861C367.94 93.7861 369.786 94.1157 371.338 94.7749C372.891 95.4194 374.085 96.3276 374.92 97.4995C375.77 98.6567 376.194 99.9971 376.194 101.521H368.79C368.79 100.92 368.687 100.407 368.482 99.9824C368.292 99.5576 367.977 99.2354 367.537 99.0156C367.098 98.7812 366.512 98.6641 365.779 98.6641C365.267 98.6641 364.798 98.7593 364.373 98.9497C363.963 99.1401 363.633 99.4038 363.384 99.7407C363.135 100.078 363.011 100.473 363.011 100.927C363.011 101.25 363.084 101.542 363.23 101.806C363.392 102.055 363.633 102.29 363.956 102.509C364.278 102.714 364.688 102.905 365.186 103.081C365.684 103.242 366.285 103.388 366.988 103.52C368.584 103.813 370.079 104.23 371.47 104.772C372.862 105.314 373.99 106.083 374.854 107.08C375.733 108.076 376.172 109.416 376.172 111.101C376.172 112.155 375.931 113.129 375.447 114.023C374.964 114.902 374.268 115.678 373.36 116.352C372.452 117.011 371.36 117.524 370.086 117.89C368.812 118.256 367.376 118.439 365.779 118.439C363.509 118.439 361.59 118.037 360.022 117.231C358.455 116.411 357.269 115.385 356.463 114.155C355.672 112.91 355.276 111.65 355.276 110.375H362.176C362.205 111.108 362.381 111.708 362.703 112.177C363.04 112.646 363.487 112.99 364.043 113.21C364.6 113.43 365.245 113.54 365.977 113.54C366.651 113.54 367.208 113.444 367.647 113.254C368.101 113.063 368.445 112.807 368.68 112.485C368.914 112.148 369.031 111.76 369.031 111.32ZM378.721 106.354V105.893C378.721 104.15 378.97 102.546 379.468 101.081C379.966 99.6016 380.699 98.3198 381.666 97.2358C382.632 96.1519 383.826 95.3096 385.247 94.709C386.668 94.0938 388.309 93.7861 390.169 93.7861C392.044 93.7861 393.692 94.0938 395.113 94.709C396.548 95.3096 397.75 96.1519 398.716 97.2358C399.683 98.3198 400.416 99.6016 400.914 101.081C401.412 102.546 401.661 104.15 401.661 105.893V106.354C401.661 108.083 401.412 109.687 400.914 111.167C400.416 112.631 399.683 113.913 398.716 115.012C397.75 116.096 396.556 116.938 395.135 117.539C393.714 118.139 392.073 118.439 390.213 118.439C388.353 118.439 386.705 118.139 385.269 117.539C383.833 116.938 382.632 116.096 381.666 115.012C380.699 113.913 379.966 112.631 379.468 111.167C378.97 109.687 378.721 108.083 378.721 106.354ZM386.126 105.893V106.354C386.126 107.248 386.192 108.083 386.324 108.859C386.456 109.636 386.675 110.317 386.983 110.903C387.291 111.474 387.708 111.921 388.235 112.243C388.763 112.565 389.422 112.727 390.213 112.727C390.989 112.727 391.634 112.565 392.146 112.243C392.674 111.921 393.091 111.474 393.399 110.903C393.707 110.317 393.926 109.636 394.058 108.859C394.19 108.083 394.256 107.248 394.256 106.354V105.893C394.256 105.029 394.19 104.216 394.058 103.454C393.926 102.678 393.707 101.997 393.399 101.411C393.091 100.81 392.674 100.341 392.146 100.004C391.619 99.6675 390.96 99.499 390.169 99.499C389.393 99.499 388.741 99.6675 388.213 100.004C387.701 100.341 387.291 100.81 386.983 101.411C386.675 101.997 386.456 102.678 386.324 103.454C386.192 104.216 386.126 105.029 386.126 105.893ZM412.427 98.7959V127.141H405.022V94.2256H411.922L412.427 98.7959ZM427.017 105.827V106.289C427.017 108.017 426.819 109.621 426.424 111.101C426.028 112.58 425.442 113.869 424.666 114.968C423.89 116.066 422.923 116.923 421.766 117.539C420.623 118.139 419.297 118.439 417.789 118.439C416.368 118.439 415.145 118.125 414.119 117.495C413.094 116.865 412.237 115.993 411.548 114.88C410.86 113.767 410.303 112.492 409.878 111.057C409.454 109.621 409.117 108.105 408.868 106.508V105.915C409.117 104.201 409.454 102.612 409.878 101.147C410.303 99.6675 410.86 98.3784 411.548 97.2798C412.237 96.1812 413.086 95.3242 414.097 94.709C415.123 94.0938 416.346 93.7861 417.767 93.7861C419.275 93.7861 420.601 94.0718 421.744 94.6431C422.901 95.2144 423.868 96.0347 424.644 97.104C425.435 98.1587 426.028 99.4258 426.424 100.905C426.819 102.385 427.017 104.025 427.017 105.827ZM419.612 106.289V105.827C419.612 104.904 419.546 104.062 419.415 103.3C419.283 102.524 419.07 101.85 418.777 101.279C418.499 100.708 418.125 100.268 417.657 99.9604C417.188 99.6528 416.609 99.499 415.921 99.499C415.13 99.499 414.463 99.6235 413.921 99.8726C413.394 100.107 412.969 100.473 412.647 100.971C412.339 101.455 412.12 102.062 411.988 102.795C411.871 103.513 411.819 104.355 411.834 105.322V107.124C411.805 108.237 411.915 109.218 412.164 110.068C412.413 110.903 412.845 111.555 413.46 112.023C414.075 112.492 414.91 112.727 415.965 112.727C416.668 112.727 417.254 112.565 417.723 112.243C418.191 111.906 418.565 111.445 418.843 110.859C419.122 110.258 419.319 109.57 419.437 108.793C419.554 108.017 419.612 107.182 419.612 106.289ZM437.564 84.25V118H430.159V84.25H437.564ZM436.685 105.3L434.949 105.344C434.949 103.674 435.154 102.136 435.564 100.729C435.975 99.3232 436.561 98.1001 437.322 97.0601C438.084 96.02 439 95.2144 440.069 94.6431C441.138 94.0718 442.325 93.7861 443.628 93.7861C444.8 93.7861 445.87 93.9546 446.836 94.2915C447.818 94.6284 448.66 95.1704 449.363 95.9175C450.081 96.6646 450.63 97.6387 451.011 98.8398C451.407 100.041 451.604 101.506 451.604 103.234V118H444.156V103.19C444.156 102.224 444.017 101.477 443.738 100.949C443.475 100.407 443.094 100.034 442.596 99.8286C442.098 99.6089 441.49 99.499 440.772 99.499C439.908 99.499 439.205 99.6455 438.663 99.9385C438.121 100.231 437.703 100.642 437.41 101.169C437.132 101.682 436.941 102.29 436.839 102.993C436.736 103.696 436.685 104.465 436.685 105.3ZM463.008 115.209L469.161 94.2256H477.115L467.557 121.538C467.352 122.138 467.081 122.783 466.744 123.471C466.407 124.174 465.945 124.841 465.359 125.471C464.773 126.101 464.019 126.613 463.096 127.009C462.188 127.404 461.06 127.602 459.712 127.602C458.995 127.602 458.467 127.565 458.13 127.492C457.808 127.434 457.31 127.324 456.636 127.163V121.867C456.827 121.867 456.988 121.867 457.12 121.867C457.266 121.867 457.427 121.867 457.603 121.867C458.394 121.867 459.024 121.787 459.493 121.625C459.976 121.464 460.342 121.23 460.591 120.922C460.855 120.615 461.06 120.241 461.207 119.802L463.008 115.209ZM461.448 94.2256L466.128 110.859L466.941 118.703H461.976L453.516 94.2256H461.448Z" fill="#424241"/>
<path d="M1363 15C1363 6.71573 1356.28 0 1348 0H1134V167H1348C1356.28 167 1363 160.284 1363 152V15Z" fill="#1B8B6A"/>
<path d="M1234.26 106.286H1262.74V111.857H1234.26V106.286ZM1239.96 117.429H1257.04V123H1239.96V117.429ZM1248.5 45C1240.95 45 1233.71 47.9349 1228.37 53.1592C1223.03 58.3834 1220.03 65.469 1220.03 72.8571C1219.84 76.9057 1220.63 80.9412 1222.34 84.6315C1224.05 88.3219 1226.64 91.5616 1229.88 94.0843C1232.73 96.675 1234.26 98.1514 1234.26 100.714H1239.96C1239.96 95.5886 1236.8 92.7193 1233.72 89.9614C1231.06 87.9676 1228.94 85.3658 1227.55 82.3838C1226.15 79.4019 1225.53 76.1308 1225.72 72.8571C1225.72 66.9466 1228.12 61.2781 1232.39 57.0988C1236.67 52.9194 1242.46 50.5714 1248.5 50.5714C1254.54 50.5714 1260.33 52.9194 1264.61 57.0988C1268.88 61.2781 1271.28 66.9466 1271.28 72.8571C1271.47 76.1333 1270.84 79.4059 1269.44 82.388C1268.04 85.3701 1265.92 87.9706 1263.25 89.9614C1260.2 92.7471 1257.04 95.5329 1257.04 100.714H1262.74C1262.74 98.1514 1264.25 96.675 1267.12 94.0564C1270.36 91.5381 1272.94 88.3031 1274.66 84.6176C1276.37 80.9321 1277.16 76.9014 1276.97 72.8571C1276.97 69.1989 1276.24 65.5765 1274.81 62.1967C1273.37 58.8169 1271.28 55.7459 1268.63 53.1592C1265.99 50.5724 1262.85 48.5205 1259.4 47.1205C1255.94 45.7205 1252.24 45 1248.5 45V45Z" fill="white"/>
</svg>
