<svg width="1363" height="301" viewBox="0 0 1363 301" fill="none" xmlns="http://www.w3.org/2000/svg">
<rect width="1363" height="301" rx="15" fill="#F0F0F0"/>
<path d="M0 15C0 6.71573 6.71573 0 15 0H37V301H15C6.71573 301 0 294.284 0 286V15Z" fill="#1B8B6A"/>
<path d="M117.217 130.76H126.617C126.491 133.482 125.757 135.881 124.415 137.958C123.072 140.034 121.21 141.655 118.829 142.818C116.465 143.964 113.672 144.537 110.45 144.537C107.836 144.537 105.499 144.098 103.44 143.221C101.399 142.344 99.6628 141.082 98.2305 139.435C96.8161 137.787 95.7329 135.791 94.981 133.446C94.2469 131.1 93.8799 128.46 93.8799 125.523V123.402C93.8799 120.466 94.2648 117.825 95.0347 115.479C95.8224 113.116 96.9325 111.111 98.3647 109.464C99.8149 107.799 101.552 106.528 103.575 105.65C105.598 104.773 107.845 104.334 110.315 104.334C113.717 104.334 116.591 104.943 118.936 106.161C121.281 107.378 123.099 109.052 124.388 111.183C125.677 113.295 126.438 115.703 126.67 118.407H117.271C117.235 116.939 116.985 115.712 116.519 114.728C116.054 113.725 115.319 112.973 114.317 112.472C113.314 111.97 111.98 111.72 110.315 111.72C109.152 111.72 108.14 111.935 107.281 112.364C106.421 112.794 105.705 113.474 105.132 114.405C104.559 115.336 104.13 116.545 103.843 118.031C103.575 119.499 103.44 121.271 103.44 123.348V125.523C103.44 127.6 103.566 129.373 103.816 130.841C104.067 132.309 104.47 133.508 105.025 134.439C105.58 135.37 106.296 136.06 107.173 136.507C108.069 136.937 109.161 137.152 110.45 137.152C111.882 137.152 113.09 136.928 114.075 136.48C115.06 136.015 115.821 135.317 116.358 134.386C116.895 133.437 117.181 132.228 117.217 130.76ZM140.206 102.75V144H131.128V102.75H140.206ZM155.352 114.942V144H146.275V114.942H155.352ZM145.738 107.45C145.738 106.161 146.203 105.104 147.134 104.281C148.065 103.457 149.274 103.045 150.76 103.045C152.246 103.045 153.454 103.457 154.385 104.281C155.316 105.104 155.782 106.161 155.782 107.45C155.782 108.739 155.316 109.795 154.385 110.619C153.454 111.442 152.246 111.854 150.76 111.854C149.274 111.854 148.065 111.442 147.134 110.619C146.203 109.795 145.738 108.739 145.738 107.45ZM170.069 121.092V144H161.019V114.942H169.505L170.069 121.092ZM168.968 128.478L166.9 128.531C166.9 126.49 167.142 124.61 167.625 122.892C168.108 121.173 168.825 119.678 169.773 118.407C170.722 117.136 171.886 116.151 173.265 115.453C174.661 114.754 176.272 114.405 178.099 114.405C179.37 114.405 180.525 114.602 181.563 114.996C182.601 115.372 183.497 115.972 184.249 116.795C185 117.601 185.573 118.657 185.967 119.964C186.379 121.253 186.585 122.802 186.585 124.61V144H177.535V125.765C177.535 124.53 177.391 123.599 177.105 122.972C176.836 122.346 176.443 121.925 175.923 121.71C175.404 121.495 174.769 121.388 174.017 121.388C173.229 121.388 172.522 121.567 171.895 121.925C171.268 122.283 170.731 122.784 170.284 123.429C169.854 124.055 169.523 124.798 169.29 125.658C169.075 126.517 168.968 127.457 168.968 128.478ZM185.564 128.478L183.04 128.531C183.04 126.49 183.264 124.61 183.711 122.892C184.177 121.173 184.866 119.678 185.779 118.407C186.71 117.136 187.865 116.151 189.244 115.453C190.622 114.754 192.225 114.405 194.051 114.405C195.376 114.405 196.593 114.602 197.703 114.996C198.813 115.39 199.771 116.026 200.577 116.903C201.382 117.78 202.009 118.944 202.457 120.394C202.904 121.826 203.128 123.599 203.128 125.711V144H194.051V125.711C194.051 124.512 193.908 123.608 193.621 122.999C193.353 122.372 192.959 121.952 192.439 121.737C191.92 121.504 191.303 121.388 190.586 121.388C189.727 121.388 188.984 121.567 188.357 121.925C187.731 122.283 187.203 122.784 186.773 123.429C186.361 124.055 186.057 124.798 185.86 125.658C185.663 126.517 185.564 127.457 185.564 128.478ZM208.392 102.75H217.442V136.856L216.502 144H208.392V102.75ZM235.274 129.149V129.713C235.274 131.915 235.05 133.92 234.603 135.729C234.155 137.537 233.466 139.103 232.535 140.428C231.604 141.735 230.431 142.747 229.017 143.463C227.602 144.179 225.928 144.537 223.995 144.537C222.24 144.537 220.736 144.161 219.483 143.409C218.23 142.639 217.182 141.583 216.341 140.24C215.499 138.88 214.819 137.313 214.3 135.541C213.781 133.75 213.369 131.834 213.064 129.793V129.122C213.369 127.099 213.781 125.201 214.3 123.429C214.819 121.638 215.499 120.072 216.341 118.729C217.182 117.368 218.221 116.312 219.456 115.56C220.709 114.79 222.204 114.405 223.941 114.405C225.892 114.405 227.575 114.772 228.99 115.506C230.422 116.24 231.604 117.27 232.535 118.595C233.466 119.92 234.155 121.477 234.603 123.268C235.05 125.058 235.274 127.018 235.274 129.149ZM226.224 129.713V129.149C226.224 128.093 226.161 127.099 226.036 126.168C225.91 125.237 225.687 124.413 225.364 123.697C225.042 122.981 224.585 122.417 223.995 122.005C223.404 121.594 222.634 121.388 221.685 121.388C220.718 121.388 219.904 121.549 219.241 121.871C218.597 122.193 218.077 122.659 217.684 123.268C217.308 123.858 217.039 124.592 216.878 125.47C216.717 126.329 216.645 127.305 216.663 128.397V130.519C216.627 132.005 216.762 133.276 217.066 134.332C217.37 135.388 217.898 136.194 218.65 136.749C219.402 137.304 220.432 137.582 221.739 137.582C222.706 137.582 223.484 137.394 224.075 137.018C224.684 136.642 225.14 136.104 225.445 135.406C225.749 134.708 225.955 133.875 226.062 132.909C226.17 131.942 226.224 130.877 226.224 129.713ZM259.874 133.607C259.874 132.998 259.784 132.452 259.605 131.969C259.426 131.467 259.095 131.002 258.611 130.572C258.128 130.143 257.43 129.713 256.517 129.283C255.621 128.836 254.44 128.37 252.972 127.887C251.253 127.314 249.597 126.669 248.003 125.953C246.41 125.219 244.987 124.369 243.733 123.402C242.48 122.417 241.486 121.271 240.752 119.964C240.018 118.639 239.651 117.1 239.651 115.345C239.651 113.662 240.027 112.149 240.779 110.807C241.531 109.446 242.579 108.291 243.921 107.342C245.282 106.375 246.875 105.641 248.702 105.14C250.528 104.621 252.524 104.361 254.69 104.361C257.555 104.361 260.079 104.863 262.264 105.865C264.466 106.85 266.185 108.255 267.42 110.082C268.673 111.89 269.3 114.029 269.3 116.5H259.927C259.927 115.515 259.721 114.647 259.31 113.895C258.916 113.143 258.316 112.552 257.51 112.123C256.705 111.693 255.693 111.478 254.476 111.478C253.294 111.478 252.3 111.657 251.495 112.015C250.689 112.373 250.08 112.857 249.668 113.465C249.257 114.056 249.051 114.71 249.051 115.426C249.051 116.017 249.212 116.554 249.534 117.037C249.874 117.503 250.349 117.941 250.958 118.353C251.584 118.765 252.336 119.159 253.213 119.535C254.109 119.911 255.111 120.278 256.221 120.636C258.298 121.298 260.142 122.041 261.753 122.865C263.383 123.67 264.752 124.592 265.862 125.631C266.99 126.651 267.841 127.815 268.414 129.122C269.004 130.429 269.3 131.906 269.3 133.553C269.3 135.308 268.96 136.865 268.279 138.226C267.599 139.587 266.623 140.742 265.352 141.69C264.081 142.621 262.559 143.329 260.787 143.812C259.014 144.295 257.036 144.537 254.852 144.537C252.846 144.537 250.868 144.286 248.917 143.785C246.983 143.266 245.228 142.478 243.653 141.422C242.077 140.348 240.815 138.978 239.866 137.313C238.935 135.63 238.47 133.634 238.47 131.324H247.923C247.923 132.47 248.075 133.437 248.379 134.225C248.684 135.012 249.131 135.648 249.722 136.131C250.313 136.597 251.038 136.937 251.897 137.152C252.757 137.349 253.742 137.447 254.852 137.447C256.051 137.447 257.018 137.277 257.752 136.937C258.486 136.579 259.023 136.113 259.363 135.541C259.703 134.95 259.874 134.305 259.874 133.607ZM283.292 114.942V144H274.214V114.942H283.292ZM273.677 107.45C273.677 106.161 274.143 105.104 275.074 104.281C276.005 103.457 277.213 103.045 278.699 103.045C280.185 103.045 281.394 103.457 282.325 104.281C283.256 105.104 283.721 106.161 283.721 107.45C283.721 108.739 283.256 109.795 282.325 110.619C281.394 111.442 280.185 111.854 278.699 111.854C277.213 111.854 276.005 111.442 275.074 110.619C274.143 109.795 273.677 108.739 273.677 107.45ZM304.185 114.942V121.227H286.675V114.942H304.185ZM290.354 107.718H299.405V134.52C299.405 135.29 299.494 135.89 299.673 136.319C299.852 136.731 300.157 137.027 300.586 137.206C301.034 137.367 301.625 137.447 302.359 137.447C302.878 137.447 303.308 137.438 303.648 137.42C303.988 137.385 304.31 137.34 304.615 137.286V143.758C303.845 144.009 303.039 144.197 302.198 144.322C301.356 144.465 300.461 144.537 299.512 144.537C297.579 144.537 295.923 144.233 294.544 143.624C293.183 143.015 292.145 142.057 291.429 140.75C290.713 139.444 290.354 137.743 290.354 135.648V107.718ZM321.856 144.537C319.493 144.537 317.38 144.17 315.518 143.436C313.656 142.684 312.081 141.655 310.792 140.348C309.52 139.041 308.545 137.537 307.864 135.836C307.202 134.135 306.871 132.336 306.871 130.438V129.417C306.871 127.287 307.166 125.318 307.757 123.509C308.348 121.683 309.225 120.09 310.389 118.729C311.552 117.368 313.012 116.312 314.766 115.56C316.521 114.79 318.562 114.405 320.889 114.405C322.948 114.405 324.792 114.736 326.421 115.399C328.051 116.061 329.429 117.01 330.557 118.246C331.703 119.481 332.571 120.976 333.162 122.73C333.771 124.485 334.075 126.454 334.075 128.639V132.318H310.335V126.651H325.24V125.953C325.258 124.986 325.088 124.163 324.729 123.482C324.389 122.802 323.888 122.283 323.226 121.925C322.563 121.567 321.757 121.388 320.809 121.388C319.824 121.388 319.009 121.603 318.365 122.032C317.738 122.462 317.246 123.053 316.888 123.805C316.548 124.539 316.306 125.389 316.163 126.356C316.019 127.323 315.948 128.343 315.948 129.417V130.438C315.948 131.512 316.091 132.488 316.377 133.365C316.682 134.243 317.111 134.994 317.667 135.621C318.239 136.23 318.92 136.704 319.708 137.044C320.513 137.385 321.426 137.555 322.447 137.555C323.682 137.555 324.9 137.322 326.099 136.856C327.299 136.391 328.328 135.621 329.188 134.547L333.296 139.435C332.706 140.276 331.864 141.091 330.772 141.878C329.698 142.666 328.409 143.311 326.905 143.812C325.401 144.295 323.718 144.537 321.856 144.537Z" fill="black"/>
<path d="M104.288 72.3608V55.1172H109.397V72.3608C109.397 74.0243 109.033 75.4541 108.304 76.6504C107.575 77.8353 106.578 78.7467 105.313 79.3848C104.06 80.0228 102.647 80.3418 101.075 80.3418C99.4455 80.3418 98.0042 80.0684 96.751 79.5215C95.4977 78.9746 94.5122 78.1372 93.7944 77.0093C93.0767 75.87 92.7178 74.4287 92.7178 72.6855H97.8618C97.8618 73.597 97.9871 74.3205 98.2378 74.856C98.4998 75.3914 98.8701 75.7731 99.3486 76.001C99.8271 76.2288 100.403 76.3428 101.075 76.3428C101.724 76.3428 102.288 76.189 102.767 75.8813C103.245 75.5737 103.615 75.1237 103.877 74.5312C104.151 73.9388 104.288 73.2153 104.288 72.3608ZM112.679 70.9424V70.5835C112.679 69.2277 112.872 67.9801 113.26 66.8408C113.647 65.6901 114.211 64.6932 114.952 63.8501C115.692 63.007 116.604 62.3519 117.686 61.8848C118.768 61.4062 120.01 61.167 121.412 61.167C122.813 61.167 124.061 61.4062 125.154 61.8848C126.248 62.3519 127.165 63.007 127.906 63.8501C128.658 64.6932 129.227 65.6901 129.615 66.8408C130.002 67.9801 130.196 69.2277 130.196 70.5835V70.9424C130.196 72.2868 130.002 73.5343 129.615 74.6851C129.227 75.8244 128.658 76.8213 127.906 77.6758C127.165 78.5189 126.254 79.174 125.171 79.6411C124.089 80.1082 122.847 80.3418 121.446 80.3418C120.044 80.3418 118.797 80.1082 117.703 79.6411C116.621 79.174 115.704 78.5189 114.952 77.6758C114.211 76.8213 113.647 75.8244 113.26 74.6851C112.872 73.5343 112.679 72.2868 112.679 70.9424ZM117.601 70.5835V70.9424C117.601 71.7171 117.669 72.4406 117.806 73.1128C117.942 73.785 118.159 74.3774 118.455 74.8901C118.763 75.3914 119.161 75.7845 119.651 76.0693C120.141 76.3542 120.739 76.4966 121.446 76.4966C122.129 76.4966 122.716 76.3542 123.206 76.0693C123.696 75.7845 124.089 75.3914 124.385 74.8901C124.681 74.3774 124.898 73.785 125.035 73.1128C125.183 72.4406 125.257 71.7171 125.257 70.9424V70.5835C125.257 69.8315 125.183 69.1252 125.035 68.4644C124.898 67.7922 124.676 67.1997 124.368 66.687C124.072 66.1629 123.679 65.7528 123.189 65.4565C122.699 65.1603 122.107 65.0122 121.412 65.0122C120.717 65.0122 120.124 65.1603 119.634 65.4565C119.156 65.7528 118.763 66.1629 118.455 66.687C118.159 67.1997 117.942 67.7922 117.806 68.4644C117.669 69.1252 117.601 69.8315 117.601 70.5835ZM141.731 80.3418C140.296 80.3418 139.008 80.1139 137.869 79.6582C136.73 79.1911 135.761 78.5474 134.964 77.7271C134.178 76.9067 133.574 75.9554 133.152 74.873C132.731 73.7793 132.52 72.6172 132.52 71.3867V70.7031C132.52 69.3018 132.719 68.02 133.118 66.8579C133.517 65.6958 134.087 64.6875 134.827 63.833C135.579 62.9785 136.491 62.3234 137.562 61.8677C138.632 61.4006 139.84 61.167 141.185 61.167C142.495 61.167 143.657 61.3835 144.671 61.8164C145.685 62.2493 146.534 62.8646 147.217 63.6621C147.912 64.4596 148.436 65.4167 148.79 66.5332C149.143 67.6383 149.319 68.8688 149.319 70.2246V72.2754H134.622V68.9941H144.483V68.6182C144.483 67.9346 144.358 67.325 144.107 66.7896C143.868 66.2427 143.503 65.8097 143.013 65.4907C142.523 65.1717 141.897 65.0122 141.133 65.0122C140.484 65.0122 139.926 65.1546 139.458 65.4395C138.991 65.7243 138.61 66.123 138.313 66.6357C138.029 67.1484 137.812 67.7523 137.664 68.4473C137.527 69.1309 137.459 69.8828 137.459 70.7031V71.3867C137.459 72.1273 137.562 72.8109 137.767 73.4375C137.983 74.0641 138.285 74.6053 138.672 75.061C139.071 75.5168 139.55 75.87 140.108 76.1206C140.678 76.3713 141.321 76.4966 142.039 76.4966C142.928 76.4966 143.754 76.3257 144.517 75.9839C145.292 75.6307 145.958 75.1009 146.517 74.3945L148.909 76.9922C148.522 77.5505 147.992 78.0859 147.32 78.5986C146.659 79.1113 145.861 79.5329 144.927 79.8633C143.993 80.1823 142.928 80.3418 141.731 80.3418ZM161.146 55.1172H170.425C172.328 55.1172 173.963 55.402 175.33 55.9717C176.709 56.5413 177.768 57.3844 178.509 58.501C179.249 59.6175 179.62 60.9904 179.62 62.6196C179.62 63.9526 179.392 65.0977 178.936 66.0547C178.492 67.0003 177.859 67.7922 177.039 68.4302C176.23 69.0568 175.279 69.5581 174.185 69.9341L172.562 70.7886H164.495L164.461 66.7896H170.459C171.36 66.7896 172.106 66.63 172.698 66.311C173.291 65.992 173.735 65.5477 174.031 64.978C174.339 64.4084 174.493 63.7476 174.493 62.9956C174.493 62.1981 174.345 61.5088 174.048 60.9277C173.752 60.3467 173.302 59.9023 172.698 59.5947C172.094 59.2871 171.337 59.1333 170.425 59.1333H166.272V80H161.146V55.1172ZM175.057 80L169.383 68.9087L174.8 68.8745L180.542 79.7607V80H175.057ZM188.455 61.5088V80H183.516V61.5088H188.455ZM183.208 56.6895C183.208 55.9717 183.459 55.3792 183.96 54.9121C184.462 54.445 185.134 54.2114 185.977 54.2114C186.809 54.2114 187.475 54.445 187.977 54.9121C188.489 55.3792 188.746 55.9717 188.746 56.6895C188.746 57.4072 188.489 57.9997 187.977 58.4668C187.475 58.9339 186.809 59.1675 185.977 59.1675C185.134 59.1675 184.462 58.9339 183.96 58.4668C183.459 57.9997 183.208 57.4072 183.208 56.6895ZM207.237 76.1548V80H193.189V76.1548H207.237ZM206.963 64.3457L195.171 80H191.873V77.0776L203.614 61.5088H206.963V64.3457ZM205.22 61.5088V65.3711H192.146V61.5088H205.22ZM215.252 53.7329V80H210.33V53.7329H215.252ZM226.907 61.5088L218.875 70.6689L214.568 75.0269L212.774 71.4722L216.192 67.1313L220.994 61.5088H226.907ZM221.797 80L216.329 71.4551L219.729 68.4814L227.471 80H221.797Z" fill="#888888"/>
<rect x="92" y="181" width="1179" height="80" rx="13.3333" fill="#CCCCCC"/>
<rect x="107" y="196.333" width="208" height="49.3333" rx="4.66667" fill="#888888" stroke="#888888" stroke-width="4"/>
<path d="M183.458 228.333H180.094L180.115 225.521H183.458C184.153 225.521 184.74 225.354 185.219 225.021C185.705 224.687 186.073 224.191 186.323 223.531C186.58 222.865 186.708 222.045 186.708 221.073V220.417C186.708 219.687 186.635 219.049 186.49 218.5C186.351 217.944 186.142 217.483 185.865 217.115C185.587 216.74 185.24 216.458 184.823 216.271C184.413 216.083 183.941 215.99 183.406 215.99H180.031V213.167H183.406C184.434 213.167 185.375 213.344 186.229 213.698C187.09 214.045 187.833 214.545 188.458 215.198C189.09 215.844 189.576 216.611 189.917 217.5C190.264 218.382 190.438 219.361 190.438 220.437V221.073C190.438 222.142 190.264 223.122 189.917 224.01C189.576 224.899 189.094 225.667 188.469 226.312C187.844 226.958 187.104 227.458 186.25 227.812C185.403 228.16 184.472 228.333 183.458 228.333ZM182.188 213.167V228.333H178.531V213.167H182.188ZM192.438 217.062H195.958V228.698C195.958 229.601 195.785 230.361 195.438 230.979C195.09 231.604 194.594 232.076 193.948 232.396C193.302 232.722 192.531 232.885 191.635 232.885C191.337 232.885 191.062 232.872 190.812 232.844C190.556 232.823 190.274 232.778 189.969 232.708V230.052C190.149 230.08 190.316 230.101 190.469 230.115C190.622 230.135 190.788 230.146 190.969 230.146C191.288 230.146 191.556 230.094 191.771 229.99C191.986 229.885 192.149 229.726 192.26 229.51C192.378 229.295 192.438 229.024 192.438 228.698V217.062ZM192.177 214.156C192.177 213.656 192.358 213.247 192.719 212.927C193.08 212.608 193.549 212.448 194.125 212.448C194.701 212.448 195.17 212.608 195.531 212.927C195.892 213.247 196.073 213.656 196.073 214.156C196.073 214.656 195.892 215.066 195.531 215.385C195.17 215.705 194.701 215.865 194.125 215.865C193.549 215.865 193.08 215.705 192.719 215.385C192.358 215.066 192.177 214.656 192.177 214.156ZM203.802 225.5V220.854C203.802 220.535 203.757 220.26 203.667 220.031C203.576 219.802 203.434 219.625 203.24 219.5C203.045 219.368 202.785 219.302 202.458 219.302C202.194 219.302 201.969 219.347 201.781 219.437C201.594 219.528 201.451 219.663 201.354 219.844C201.257 220.024 201.208 220.253 201.208 220.531H197.698C197.698 220.01 197.813 219.528 198.042 219.083C198.278 218.632 198.611 218.24 199.042 217.906C199.479 217.573 200 217.316 200.604 217.135C201.215 216.948 201.896 216.854 202.646 216.854C203.542 216.854 204.34 217.003 205.042 217.302C205.75 217.601 206.309 218.049 206.719 218.646C207.128 219.236 207.333 219.979 207.333 220.875V225.49C207.333 226.226 207.375 226.785 207.458 227.167C207.542 227.542 207.66 227.872 207.813 228.156V228.333H204.292C204.125 227.986 204 227.562 203.917 227.062C203.84 226.556 203.802 226.035 203.802 225.5ZM204.229 221.448L204.25 223.323H202.698C202.372 223.323 202.094 223.368 201.865 223.458C201.642 223.549 201.462 223.674 201.323 223.833C201.191 223.986 201.094 224.16 201.031 224.354C200.976 224.549 200.948 224.753 200.948 224.969C200.948 225.177 200.997 225.365 201.094 225.531C201.198 225.691 201.337 225.816 201.51 225.906C201.684 225.997 201.878 226.042 202.094 226.042C202.483 226.042 202.813 225.969 203.083 225.823C203.361 225.67 203.573 225.486 203.719 225.271C203.865 225.056 203.938 224.854 203.938 224.667L204.708 226.104C204.569 226.382 204.41 226.663 204.229 226.948C204.056 227.233 203.837 227.497 203.573 227.74C203.316 227.976 203 228.17 202.625 228.323C202.25 228.469 201.795 228.542 201.26 228.542C200.566 228.542 199.927 228.399 199.344 228.115C198.767 227.83 198.306 227.434 197.958 226.927C197.611 226.413 197.438 225.823 197.438 225.156C197.438 224.573 197.542 224.052 197.75 223.594C197.965 223.135 198.288 222.747 198.719 222.427C199.149 222.108 199.698 221.865 200.365 221.698C201.031 221.531 201.816 221.448 202.719 221.448H204.229ZM212.729 219.469V228.333H209.219V217.062H212.51L212.729 219.469ZM212.313 222.312L211.49 222.333C211.49 221.472 211.594 220.705 211.802 220.031C212.01 219.351 212.306 218.774 212.688 218.302C213.069 217.83 213.524 217.472 214.052 217.229C214.587 216.979 215.181 216.854 215.833 216.854C216.354 216.854 216.83 216.931 217.26 217.083C217.698 217.236 218.073 217.483 218.385 217.823C218.705 218.163 218.948 218.615 219.115 219.177C219.288 219.733 219.375 220.42 219.375 221.24V228.333H215.844V221.229C215.844 220.778 215.781 220.434 215.656 220.198C215.531 219.955 215.351 219.788 215.115 219.698C214.878 219.608 214.59 219.562 214.25 219.562C213.889 219.562 213.583 219.632 213.333 219.771C213.083 219.91 212.882 220.104 212.729 220.354C212.583 220.597 212.476 220.885 212.406 221.219C212.344 221.552 212.313 221.917 212.313 222.312ZM228.406 217.062H231.594V227.896C231.594 228.937 231.354 229.819 230.875 230.542C230.396 231.271 229.726 231.823 228.865 232.198C228.01 232.58 227.01 232.771 225.865 232.771C225.358 232.771 224.84 232.705 224.313 232.573C223.785 232.448 223.292 232.26 222.833 232.01C222.375 231.76 221.99 231.451 221.677 231.083L223.146 229.021C223.431 229.34 223.788 229.611 224.219 229.833C224.649 230.062 225.156 230.177 225.74 230.177C226.247 230.177 226.67 230.087 227.01 229.906C227.358 229.726 227.622 229.462 227.802 229.115C227.983 228.774 228.073 228.361 228.073 227.875V219.729L228.406 217.062ZM220.917 222.833V222.615C220.917 221.76 221.021 220.983 221.229 220.281C221.444 219.573 221.75 218.965 222.146 218.458C222.549 217.944 223.035 217.549 223.604 217.271C224.174 216.993 224.816 216.854 225.531 216.854C226.302 216.854 226.934 217.003 227.427 217.302C227.927 217.594 228.326 218.003 228.625 218.531C228.931 219.059 229.167 219.677 229.333 220.385C229.507 221.087 229.653 221.844 229.771 222.656V222.917C229.653 223.681 229.49 224.403 229.281 225.083C229.08 225.757 228.816 226.354 228.49 226.875C228.163 227.396 227.753 227.806 227.26 228.104C226.774 228.396 226.191 228.542 225.51 228.542C224.802 228.542 224.163 228.399 223.594 228.115C223.031 227.83 222.549 227.431 222.146 226.917C221.75 226.403 221.444 225.799 221.229 225.104C221.021 224.41 220.917 223.653 220.917 222.833ZM224.427 222.615V222.833C224.427 223.257 224.465 223.649 224.542 224.01C224.625 224.372 224.75 224.691 224.917 224.969C225.083 225.24 225.288 225.451 225.531 225.604C225.781 225.757 226.073 225.833 226.406 225.833C226.913 225.833 227.323 225.726 227.635 225.51C227.948 225.295 228.174 224.99 228.313 224.594C228.451 224.198 228.51 223.733 228.49 223.198V222.375C228.503 221.917 228.472 221.514 228.396 221.167C228.319 220.812 228.198 220.517 228.031 220.281C227.872 220.045 227.656 219.868 227.385 219.75C227.122 219.625 226.802 219.562 226.427 219.562C226.101 219.562 225.813 219.639 225.563 219.792C225.313 219.944 225.104 220.16 224.938 220.437C224.771 220.708 224.642 221.031 224.552 221.406C224.469 221.774 224.427 222.177 224.427 222.615ZM233.177 222.812V222.594C233.177 221.767 233.295 221.007 233.531 220.312C233.767 219.611 234.115 219.003 234.573 218.49C235.031 217.976 235.597 217.576 236.271 217.292C236.944 217 237.722 216.854 238.604 216.854C239.493 216.854 240.274 217 240.948 217.292C241.628 217.576 242.198 217.976 242.656 218.49C243.115 219.003 243.462 219.611 243.698 220.312C243.934 221.007 244.052 221.767 244.052 222.594V222.812C244.052 223.632 243.934 224.392 243.698 225.094C243.462 225.788 243.115 226.396 242.656 226.917C242.198 227.431 241.632 227.83 240.958 228.115C240.285 228.399 239.507 228.542 238.625 228.542C237.743 228.542 236.962 228.399 236.281 228.115C235.601 227.83 235.031 227.431 234.573 226.917C234.115 226.396 233.767 225.788 233.531 225.094C233.295 224.392 233.177 223.632 233.177 222.812ZM236.688 222.594V222.812C236.688 223.236 236.719 223.632 236.781 224C236.844 224.368 236.948 224.691 237.094 224.969C237.24 225.24 237.438 225.451 237.688 225.604C237.938 225.757 238.25 225.833 238.625 225.833C238.993 225.833 239.299 225.757 239.542 225.604C239.792 225.451 239.99 225.24 240.135 224.969C240.281 224.691 240.385 224.368 240.448 224C240.51 223.632 240.542 223.236 240.542 222.812V222.594C240.542 222.184 240.51 221.799 240.448 221.437C240.385 221.069 240.281 220.747 240.135 220.469C239.99 220.184 239.792 219.962 239.542 219.802C239.292 219.642 238.979 219.562 238.604 219.562C238.236 219.562 237.927 219.642 237.677 219.802C237.434 219.962 237.24 220.184 237.094 220.469C236.948 220.747 236.844 221.069 236.781 221.437C236.719 221.799 236.688 222.184 236.688 222.594Z" fill="white"/>
<rect x="339" y="196.333" width="208" height="49.3333" rx="4.66667" fill="#888888" stroke="#888888" stroke-width="4"/>
<path d="M382.833 213.167H388.802C389.969 213.167 390.983 213.34 391.844 213.687C392.705 214.035 393.368 214.549 393.833 215.229C394.306 215.91 394.542 216.75 394.542 217.75C394.542 218.618 394.406 219.344 394.135 219.927C393.865 220.51 393.486 220.993 393 221.375C392.521 221.75 391.962 222.059 391.323 222.302L390.125 222.979H385.115L385.094 220.156H388.802C389.267 220.156 389.653 220.073 389.958 219.906C390.264 219.74 390.493 219.503 390.646 219.198C390.806 218.885 390.885 218.514 390.885 218.083C390.885 217.646 390.806 217.271 390.646 216.958C390.486 216.646 390.25 216.406 389.937 216.24C389.632 216.073 389.253 215.99 388.802 215.99H386.49V228.333H382.833V213.167ZM391.135 228.333L387.781 221.625L391.656 221.604L395.052 228.177V228.333H391.135ZM402.042 228.542C401.125 228.542 400.306 228.399 399.583 228.115C398.861 227.823 398.25 227.424 397.75 226.917C397.257 226.41 396.878 225.826 396.615 225.167C396.358 224.507 396.229 223.809 396.229 223.073V222.677C396.229 221.851 396.344 221.087 396.573 220.385C396.802 219.677 397.142 219.059 397.594 218.531C398.045 218.003 398.611 217.594 399.292 217.302C399.972 217.003 400.764 216.854 401.667 216.854C402.465 216.854 403.181 216.983 403.813 217.24C404.444 217.497 404.979 217.865 405.417 218.344C405.861 218.823 406.198 219.403 406.427 220.083C406.663 220.764 406.781 221.528 406.781 222.375V223.802H397.573V221.604H403.354V221.333C403.361 220.958 403.295 220.639 403.156 220.375C403.024 220.111 402.83 219.91 402.573 219.771C402.316 219.632 402.003 219.562 401.635 219.562C401.253 219.562 400.938 219.646 400.688 219.812C400.444 219.979 400.253 220.208 400.115 220.5C399.983 220.785 399.889 221.115 399.833 221.49C399.778 221.865 399.75 222.26 399.75 222.677V223.073C399.75 223.49 399.806 223.868 399.917 224.208C400.035 224.549 400.201 224.84 400.417 225.083C400.639 225.319 400.903 225.503 401.208 225.635C401.521 225.767 401.875 225.833 402.271 225.833C402.75 225.833 403.222 225.743 403.688 225.562C404.153 225.382 404.552 225.083 404.885 224.667L406.479 226.562C406.25 226.889 405.924 227.205 405.5 227.51C405.083 227.816 404.583 228.066 404 228.26C403.417 228.448 402.764 228.542 402.042 228.542ZM414.063 225.5V220.854C414.063 220.535 414.017 220.26 413.927 220.031C413.837 219.802 413.694 219.625 413.5 219.5C413.306 219.368 413.045 219.302 412.719 219.302C412.455 219.302 412.229 219.347 412.042 219.437C411.854 219.528 411.712 219.663 411.615 219.844C411.517 220.024 411.469 220.253 411.469 220.531H407.958C407.958 220.01 408.073 219.528 408.302 219.083C408.538 218.632 408.872 218.24 409.302 217.906C409.74 217.573 410.26 217.316 410.865 217.135C411.476 216.948 412.156 216.854 412.906 216.854C413.802 216.854 414.601 217.003 415.302 217.302C416.01 217.601 416.569 218.049 416.979 218.646C417.389 219.236 417.594 219.979 417.594 220.875V225.49C417.594 226.226 417.635 226.785 417.719 227.167C417.802 227.542 417.92 227.872 418.073 228.156V228.333H414.552C414.385 227.986 414.26 227.562 414.177 227.062C414.101 226.556 414.063 226.035 414.063 225.5ZM414.49 221.448L414.51 223.323H412.958C412.632 223.323 412.354 223.368 412.125 223.458C411.903 223.549 411.722 223.674 411.583 223.833C411.451 223.986 411.354 224.16 411.292 224.354C411.236 224.549 411.208 224.753 411.208 224.969C411.208 225.177 411.257 225.365 411.354 225.531C411.458 225.691 411.597 225.816 411.771 225.906C411.944 225.997 412.139 226.042 412.354 226.042C412.743 226.042 413.073 225.969 413.344 225.823C413.622 225.67 413.833 225.486 413.979 225.271C414.125 225.056 414.198 224.854 414.198 224.667L414.969 226.104C414.83 226.382 414.67 226.663 414.49 226.948C414.316 227.233 414.097 227.497 413.833 227.74C413.576 227.976 413.26 228.17 412.885 228.323C412.51 228.469 412.056 228.542 411.521 228.542C410.826 228.542 410.188 228.399 409.604 228.115C409.028 227.83 408.566 227.434 408.219 226.927C407.872 226.413 407.698 225.823 407.698 225.156C407.698 224.573 407.802 224.052 408.01 223.594C408.226 223.135 408.549 222.747 408.979 222.427C409.41 222.108 409.958 221.865 410.625 221.698C411.292 221.531 412.076 221.448 412.979 221.448H414.49ZM424.302 225.833C424.628 225.833 424.906 225.774 425.135 225.656C425.372 225.531 425.549 225.358 425.667 225.135C425.792 224.906 425.851 224.632 425.844 224.312H429.146C429.153 225.16 428.944 225.903 428.521 226.542C428.104 227.174 427.535 227.667 426.812 228.021C426.097 228.368 425.288 228.542 424.385 228.542C423.503 228.542 422.733 228.399 422.073 228.115C421.413 227.823 420.861 227.42 420.417 226.906C419.979 226.385 419.649 225.778 419.427 225.083C419.212 224.389 419.104 223.635 419.104 222.823V222.583C419.104 221.771 419.212 221.017 419.427 220.323C419.649 219.622 419.979 219.014 420.417 218.5C420.861 217.979 421.41 217.576 422.062 217.292C422.722 217 423.49 216.854 424.365 216.854C425.302 216.854 426.128 217.031 426.844 217.385C427.566 217.74 428.132 218.253 428.542 218.927C428.951 219.601 429.153 220.417 429.146 221.375H425.844C425.851 221.035 425.799 220.729 425.687 220.458C425.576 220.187 425.403 219.972 425.167 219.812C424.937 219.646 424.642 219.562 424.281 219.562C423.92 219.562 423.628 219.642 423.406 219.802C423.184 219.962 423.014 220.184 422.896 220.469C422.785 220.747 422.708 221.066 422.667 221.427C422.632 221.788 422.615 222.174 422.615 222.583V222.823C422.615 223.24 422.632 223.632 422.667 224C422.708 224.361 422.788 224.681 422.906 224.958C423.024 225.229 423.194 225.444 423.417 225.604C423.639 225.757 423.934 225.833 424.302 225.833ZM436.583 217.062V219.5H429.792V217.062H436.583ZM431.219 214.26H434.729V224.656C434.729 224.955 434.764 225.187 434.833 225.354C434.903 225.514 435.021 225.628 435.188 225.698C435.361 225.76 435.59 225.792 435.875 225.792C436.076 225.792 436.243 225.788 436.375 225.781C436.507 225.767 436.632 225.75 436.75 225.729V228.24C436.451 228.337 436.139 228.41 435.813 228.458C435.486 228.514 435.139 228.542 434.771 228.542C434.021 228.542 433.378 228.424 432.844 228.187C432.316 227.951 431.913 227.58 431.635 227.073C431.358 226.566 431.219 225.906 431.219 225.094V214.26ZM456.125 213.167V228.333H452.479L447.115 218.896V228.333H443.458V213.167H447.115L452.479 222.604V213.167H456.125ZM464.125 225.5V220.854C464.125 220.535 464.08 220.26 463.99 220.031C463.899 219.802 463.757 219.625 463.563 219.5C463.368 219.368 463.108 219.302 462.781 219.302C462.517 219.302 462.292 219.347 462.104 219.437C461.917 219.528 461.774 219.663 461.677 219.844C461.58 220.024 461.531 220.253 461.531 220.531H458.021C458.021 220.01 458.135 219.528 458.365 219.083C458.601 218.632 458.934 218.24 459.365 217.906C459.802 217.573 460.323 217.316 460.927 217.135C461.538 216.948 462.219 216.854 462.969 216.854C463.865 216.854 464.663 217.003 465.365 217.302C466.073 217.601 466.632 218.049 467.042 218.646C467.451 219.236 467.656 219.979 467.656 220.875V225.49C467.656 226.226 467.698 226.785 467.781 227.167C467.865 227.542 467.983 227.872 468.135 228.156V228.333H464.615C464.448 227.986 464.323 227.562 464.24 227.062C464.163 226.556 464.125 226.035 464.125 225.5ZM464.552 221.448L464.573 223.323H463.021C462.694 223.323 462.417 223.368 462.188 223.458C461.965 223.549 461.785 223.674 461.646 223.833C461.514 223.986 461.417 224.16 461.354 224.354C461.299 224.549 461.271 224.753 461.271 224.969C461.271 225.177 461.319 225.365 461.417 225.531C461.521 225.691 461.66 225.816 461.833 225.906C462.007 225.997 462.201 226.042 462.417 226.042C462.806 226.042 463.135 225.969 463.406 225.823C463.684 225.67 463.896 225.486 464.042 225.271C464.188 225.056 464.26 224.854 464.26 224.667L465.031 226.104C464.892 226.382 464.733 226.663 464.552 226.948C464.378 227.233 464.16 227.497 463.896 227.74C463.639 227.976 463.323 228.17 462.948 228.323C462.573 228.469 462.118 228.542 461.583 228.542C460.889 228.542 460.25 228.399 459.667 228.115C459.09 227.83 458.628 227.434 458.281 226.927C457.934 226.413 457.76 225.823 457.76 225.156C457.76 224.573 457.865 224.052 458.073 223.594C458.288 223.135 458.611 222.747 459.042 222.427C459.472 222.108 460.021 221.865 460.688 221.698C461.354 221.531 462.139 221.448 463.042 221.448H464.552ZM475.542 217.062V219.5H468.75V217.062H475.542ZM470.177 214.26H473.687V224.656C473.687 224.955 473.722 225.187 473.792 225.354C473.861 225.514 473.979 225.628 474.146 225.698C474.319 225.76 474.549 225.792 474.833 225.792C475.035 225.792 475.201 225.788 475.333 225.781C475.465 225.767 475.59 225.75 475.708 225.729V228.24C475.41 228.337 475.097 228.41 474.771 228.458C474.444 228.514 474.097 228.542 473.729 228.542C472.979 228.542 472.337 228.424 471.802 228.187C471.274 227.951 470.872 227.58 470.594 227.073C470.316 226.566 470.177 225.906 470.177 225.094V214.26ZM480.646 217.062V228.333H477.125V217.062H480.646ZM476.917 214.156C476.917 213.656 477.097 213.247 477.458 212.927C477.819 212.608 478.288 212.448 478.865 212.448C479.441 212.448 479.91 212.608 480.271 212.927C480.632 213.247 480.813 213.656 480.813 214.156C480.813 214.656 480.632 215.066 480.271 215.385C479.91 215.705 479.441 215.865 478.865 215.865C478.288 215.865 477.819 215.705 477.458 215.385C477.097 215.066 476.917 214.656 476.917 214.156ZM486.875 225.927L489.094 217.062H492.792L489.104 228.333H486.917L486.875 225.927ZM485.563 217.062L487.75 225.927L487.729 228.333H485.531L481.854 217.062H485.563ZM499.146 228.542C498.229 228.542 497.41 228.399 496.688 228.115C495.965 227.823 495.354 227.424 494.854 226.917C494.361 226.41 493.983 225.826 493.719 225.167C493.462 224.507 493.333 223.809 493.333 223.073V222.677C493.333 221.851 493.448 221.087 493.677 220.385C493.906 219.677 494.247 219.059 494.698 218.531C495.149 218.003 495.715 217.594 496.396 217.302C497.076 217.003 497.868 216.854 498.771 216.854C499.569 216.854 500.285 216.983 500.917 217.24C501.549 217.497 502.083 217.865 502.521 218.344C502.965 218.823 503.302 219.403 503.531 220.083C503.767 220.764 503.885 221.528 503.885 222.375V223.802H494.677V221.604H500.458V221.333C500.465 220.958 500.399 220.639 500.26 220.375C500.128 220.111 499.934 219.91 499.677 219.771C499.42 219.632 499.108 219.562 498.74 219.562C498.358 219.562 498.042 219.646 497.792 219.812C497.549 219.979 497.358 220.208 497.219 220.5C497.087 220.785 496.993 221.115 496.938 221.49C496.882 221.865 496.854 222.26 496.854 222.677V223.073C496.854 223.49 496.91 223.868 497.021 224.208C497.139 224.549 497.306 224.84 497.521 225.083C497.743 225.319 498.007 225.503 498.313 225.635C498.625 225.767 498.979 225.833 499.375 225.833C499.854 225.833 500.326 225.743 500.792 225.562C501.257 225.382 501.656 225.083 501.99 224.667L503.583 226.562C503.354 226.889 503.028 227.205 502.604 227.51C502.188 227.816 501.688 228.066 501.104 228.26C500.521 228.448 499.868 228.542 499.146 228.542Z" fill="white"/>
<rect x="571" y="196.333" width="208" height="49.3333" rx="4.66667" fill="#888888" stroke="#888888" stroke-width="4"/>
<path d="M643.26 213.167H646.24L649.625 223.719L653.01 213.167H655.99L650.833 228.333H648.417L643.26 213.167ZM641.448 213.167H644.531L645.104 224.792V228.333H641.448V213.167ZM654.719 213.167H657.812V228.333H654.146V224.792L654.719 213.167ZM663.448 227.01L666.365 217.062H670.135L665.604 230.01C665.507 230.295 665.378 230.601 665.219 230.927C665.059 231.26 664.84 231.576 664.563 231.875C664.285 232.174 663.927 232.417 663.49 232.604C663.059 232.792 662.524 232.885 661.885 232.885C661.545 232.885 661.295 232.868 661.135 232.833C660.983 232.806 660.747 232.753 660.427 232.677V230.167C660.517 230.167 660.594 230.167 660.656 230.167C660.726 230.167 660.802 230.167 660.885 230.167C661.26 230.167 661.559 230.128 661.781 230.052C662.01 229.976 662.184 229.865 662.302 229.719C662.427 229.573 662.524 229.396 662.594 229.187L663.448 227.01ZM662.708 217.062L664.927 224.948L665.313 228.667H662.958L658.948 217.062H662.708ZM679.031 224.302C679.031 224.066 678.997 223.854 678.927 223.667C678.858 223.472 678.729 223.292 678.542 223.125C678.354 222.958 678.083 222.792 677.729 222.625C677.382 222.451 676.924 222.271 676.354 222.083C675.688 221.861 675.045 221.611 674.427 221.333C673.809 221.049 673.257 220.719 672.771 220.344C672.285 219.962 671.899 219.517 671.615 219.01C671.33 218.497 671.188 217.899 671.188 217.219C671.188 216.566 671.333 215.979 671.625 215.458C671.917 214.931 672.323 214.483 672.844 214.115C673.372 213.74 673.99 213.455 674.698 213.26C675.406 213.059 676.181 212.958 677.021 212.958C678.132 212.958 679.111 213.153 679.958 213.542C680.813 213.924 681.479 214.469 681.958 215.177C682.444 215.878 682.688 216.708 682.688 217.667H679.052C679.052 217.285 678.972 216.948 678.813 216.656C678.66 216.365 678.427 216.135 678.115 215.969C677.802 215.802 677.41 215.719 676.938 215.719C676.479 215.719 676.094 215.788 675.781 215.927C675.469 216.066 675.233 216.253 675.073 216.49C674.913 216.719 674.833 216.972 674.833 217.25C674.833 217.479 674.896 217.687 675.021 217.875C675.153 218.056 675.337 218.226 675.573 218.385C675.816 218.545 676.108 218.698 676.448 218.844C676.795 218.99 677.184 219.132 677.615 219.271C678.42 219.528 679.135 219.816 679.76 220.135C680.392 220.448 680.924 220.806 681.354 221.208C681.792 221.604 682.122 222.056 682.344 222.562C682.573 223.069 682.688 223.642 682.688 224.281C682.688 224.962 682.556 225.566 682.292 226.094C682.028 226.622 681.649 227.069 681.156 227.437C680.663 227.799 680.073 228.073 679.385 228.26C678.698 228.448 677.931 228.542 677.083 228.542C676.306 228.542 675.538 228.444 674.781 228.25C674.031 228.049 673.351 227.743 672.74 227.333C672.128 226.917 671.639 226.385 671.271 225.74C670.91 225.087 670.729 224.312 670.729 223.417H674.396C674.396 223.861 674.455 224.236 674.573 224.542C674.691 224.847 674.865 225.094 675.094 225.281C675.323 225.462 675.604 225.594 675.938 225.677C676.271 225.753 676.653 225.792 677.083 225.792C677.549 225.792 677.924 225.726 678.208 225.594C678.493 225.455 678.701 225.274 678.833 225.052C678.965 224.823 679.031 224.573 679.031 224.302ZM693.031 225.833L697.26 229.187L694.99 231.104L690.833 227.75L693.031 225.833ZM697.437 220.448V221.062C697.437 222.222 697.274 223.264 696.948 224.187C696.628 225.104 696.17 225.889 695.573 226.542C694.983 227.187 694.285 227.684 693.479 228.031C692.674 228.372 691.785 228.542 690.812 228.542C689.833 228.542 688.937 228.372 688.125 228.031C687.319 227.684 686.618 227.187 686.021 226.542C685.431 225.889 684.972 225.104 684.646 224.187C684.326 223.264 684.167 222.222 684.167 221.062V220.448C684.167 219.288 684.326 218.247 684.646 217.323C684.972 216.399 685.427 215.615 686.01 214.969C686.601 214.316 687.299 213.819 688.104 213.479C688.917 213.132 689.812 212.958 690.792 212.958C691.764 212.958 692.653 213.132 693.458 213.479C694.271 213.819 694.972 214.316 695.562 214.969C696.16 215.615 696.622 216.399 696.948 217.323C697.274 218.247 697.437 219.288 697.437 220.448ZM693.719 221.062V220.427C693.719 219.677 693.653 219.017 693.521 218.448C693.396 217.872 693.208 217.389 692.958 217C692.708 216.611 692.399 216.319 692.031 216.125C691.67 215.924 691.257 215.823 690.792 215.823C690.306 215.823 689.882 215.924 689.521 216.125C689.16 216.319 688.858 216.611 688.615 217C688.372 217.389 688.187 217.872 688.062 218.448C687.944 219.017 687.885 219.677 687.885 220.427V221.062C687.885 221.806 687.944 222.465 688.062 223.042C688.187 223.611 688.372 224.094 688.615 224.49C688.865 224.885 689.17 225.184 689.531 225.385C689.899 225.587 690.326 225.687 690.812 225.687C691.278 225.687 691.691 225.587 692.052 225.385C692.413 225.184 692.715 224.885 692.958 224.49C693.208 224.094 693.396 223.611 693.521 223.042C693.653 222.465 693.719 221.806 693.719 221.062ZM709.323 225.521V228.333H701.656V225.521H709.323ZM702.958 213.167V228.333H699.302V213.167H702.958Z" fill="white"/>
</svg>
